<svg width="16" height="10" viewBox="0 0 16 10" fill="none" xmlns="http://www.w3.org/2000/svg">
<path d="M0.64569 5.40047L5.64481e-08 5.40047L-5.6448e-08 4.10909L0.64569 4.10909L0.64569 5.40047ZM15.8109 4.2982C16.063 4.55036 16.063 4.95919 15.8109 5.21135L11.7017 9.32049C11.4496 9.57265 11.0407 9.57265 10.7886 9.32049C10.5364 9.06834 10.5364 8.65951 10.7886 8.40735L14.4411 4.75478L10.7886 1.1022C10.5364 0.850043 10.5364 0.441214 10.7886 0.189057C11.0407 -0.0631009 11.4496 -0.063101 11.7017 0.189057L15.8109 4.2982ZM0.64569 4.10909L15.3543 4.10909L15.3543 5.40047L0.64569 5.40047L0.64569 4.10909Z" fill="white"/>
</svg>
