<svg width="100" height="100" viewBox="0 0 100 100" fill="none" xmlns="http://www.w3.org/2000/svg">
<path d="M48.8333 35V34.5H48.3333H15H14.5V35V42.5833V43.2016L15.1046 43.0723C23.1667 41.3479 31.667 42.0573 39.2533 45.3356L39.2534 45.3357C41.538 46.3223 43.7296 47.524 45.8744 48.766L45.9907 48.8333H46.125H48.3333H48.8333V48.3333V35ZM67.1667 18.3333V17.8333H66.6667H33.3333H32.8333V18.3333V31.6667V32.1667H33.3333H66.6667H67.1667V31.6667V18.3333ZM51.1667 48.3333V48.8333H51.6667H85H85.5V48.3333V35V34.5H85H51.6667H51.1667V35V48.3333ZM67.1667 51.6667V51.1667H66.6667H51.85H49.9445L51.6045 52.1022C53.3142 53.0659 55.0635 53.9923 56.8522 54.7625C60.0165 56.1257 63.3167 56.8483 66.629 57.0986L67.1667 57.1392V56.6V51.6667ZM70 51.1667H69.5V51.6667V56.69V57.2021L70.0119 57.1899C76.5363 57.0344 82.9619 55.0804 88.4241 52.1058L88.185 51.1667H70ZM93.375 48.8333H93.544L93.6784 48.7308C94.8861 47.8089 95.9968 46.8334 97.0189 45.8282L97.1683 45.6812V45.4717V35V34.5H96.6683H88.3333H87.8333V35V48.3333V48.8333H88.3333H93.375ZM96.6667 32.1667H97.1667L97.1667 31.6666L97.165 18.3333L97.1649 17.8333H96.665H69.9983H69.4983V18.3333V31.6667V32.1667H69.9983H96.6667ZM51.165 15V15.5H51.665H84.9983H85.4983V15V3.33333V2.83333H84.9983H51.665H51.165V3.33333V15ZM48.3317 15.5H48.8316L48.8317 15.0001L48.8333 3.3334L48.8334 2.83333H48.3333H15H14.5V3.33333V15V15.5H15H48.3317ZM30.4983 18.3333V17.8333H29.9983H3.33333H2.83333V18.3333V31.6667V32.1667H3.33333H29.9983H30.4983V31.6667V18.3333ZM12.165 35V34.5H11.665H3.33167H2.83167V35V47.0067V47.8637L3.57773 47.4419C6.19816 45.9605 8.96242 44.7899 11.8098 43.9286L12.165 43.8211V43.45V35ZM2.83333 96.6667V97.1667L3.33332 97.1667L96.6683 97.1683L97.1683 97.1683V96.6683V49.9733V48.9125L96.3501 49.5877C89.3769 55.3416 79.2838 59.5333 69.0983 59.5333C64.6386 59.5333 60.1667 58.7293 55.9292 56.9073C52.8061 55.5615 49.859 53.8202 46.9769 52.1173L46.9696 52.113C46.9695 52.113 46.9694 52.1129 46.9693 52.1129C44.2027 50.4759 41.3089 48.764 38.3283 47.476L38.3283 47.476C27.0335 42.5967 13.6142 43.7735 3.06523 50.4746L2.83333 50.6219V50.8967V96.6667ZM96.6667 15.5H97.1667V15V3.33333V2.83333H96.6667H88.3333H87.8333V3.33333V15V15.5H88.3333H96.6667ZM12.1667 3.33333V2.83333H11.6667H3.33333H2.83333V3.33333V15V15.5H3.33333H11.6667H12.1667V15V3.33333ZM96.6667 99.5H3.33333C1.77114 99.5 0.5 98.2289 0.5 96.6667V3.33333C0.5 1.77114 1.77114 0.5 3.33333 0.5H96.6667C98.2289 0.5 99.5 1.77114 99.5 3.33333V96.6667C99.5 98.2289 98.2289 99.5 96.6667 99.5Z" fill="#0C397E" stroke="#F0FAFF"/>
</svg>
