<svg width="80" height="80" viewBox="0 0 80 80" fill="none" xmlns="http://www.w3.org/2000/svg">
<g clip-path="url(#clip0_2041_126)">
<path d="M46.0748 52.1011C40.6708 48.6697 35.764 44.194 31.0728 38.4418C28.7023 35.4414 27.1109 32.9217 26.0002 30.3523C27.5585 28.9432 29.0172 27.4679 30.4263 26.0257M46.0748 52.1011L45.8064 52.523M46.0748 52.1011L45.8068 52.5232C45.8067 52.5231 45.8065 52.523 45.8064 52.523M46.0748 52.1011C46.6219 52.4492 47.2352 52.7642 47.8983 53.0957L47.8984 53.0958C48.4288 53.361 48.9924 53.6428 49.5394 53.9577L55.4739 48.0232C57.2145 46.2826 59.2534 45.3543 61.3753 45.3543C63.4971 45.3543 65.5195 46.2826 67.2103 48.0398L77.173 58.0025C80.7371 61.5665 80.7371 66.2412 77.2062 69.9213L31.9513 12.5487C33.7582 14.339 34.7031 16.4111 34.7031 18.5164C34.7031 20.6216 33.7416 22.6937 31.9513 24.484C31.4374 24.9979 30.9236 25.5118 30.4263 26.0257M45.8064 52.523C40.3503 49.0585 35.4047 44.5445 30.6853 38.7578L30.6804 38.7518L30.6804 38.7517C28.2932 35.7301 26.6747 33.1727 25.5413 30.5506L25.3991 30.2217L25.6649 29.9814C27.2102 28.584 28.6593 27.1187 30.0676 25.6773M45.8064 52.523C46.3777 52.8865 47.0122 53.2117 47.6747 53.5429C48.2071 53.8092 48.7577 54.0846 49.2899 54.391L49.622 54.5822L49.8929 54.3113L55.8275 48.3768C57.4916 46.7126 59.4087 45.8543 61.3753 45.8543C63.341 45.8543 65.2385 46.7118 66.8501 48.3865L66.85 48.3865L66.8568 48.3933L76.8195 58.356C78.5222 60.0587 79.3464 61.9963 79.3502 63.9194C79.354 65.8436 78.5366 67.8125 76.8454 69.5751L76.8452 69.5753C76.0897 70.3637 75.2998 71.1372 74.5231 71.8809L74.5205 71.8833C74.4406 71.9609 74.3608 72.0383 74.2812 72.1156C73.2272 73.1377 72.198 74.1359 71.2845 75.2384L71.2479 75.2825L71.242 75.2944L71.2354 75.3016C68.6316 78.129 65.4514 79.5 61.4582 79.5C61.1036 79.5 60.763 79.4852 60.3957 79.4692L60.3632 79.4679C60.3615 79.4678 60.3597 79.4677 60.358 79.4676C54.3096 79.0751 48.8632 76.7908 44.7486 74.8409C33.9732 69.6175 24.5318 62.2361 16.6867 52.8583C10.2179 45.0858 5.87415 37.8243 2.99655 30.0136L2.9961 30.0124C1.1232 24.9687 0.414244 20.8335 0.721535 16.9657C0.977011 13.9187 2.20152 11.2941 4.37285 9.12272L10.5683 2.92724C12.264 1.3125 14.1658 0.5 16.1204 0.5C18.0941 0.5 19.9784 1.31439 21.6054 2.90984L21.6105 2.9148L21.6157 2.91962C22.7325 3.95434 23.8685 5.10661 24.9618 6.23303L24.9619 6.23318L25.0085 6.28108C25.5554 6.84408 26.0907 7.3952 26.6579 7.96234L31.5978 12.9023L31.5994 12.9039C33.3308 14.6193 34.2031 16.5694 34.2031 18.5164C34.2031 20.4616 33.3157 22.4126 31.5978 24.1305L31.596 24.1322C31.0835 24.6448 30.5675 25.1608 30.0676 25.6773M30.0676 25.6773C30.0674 25.6775 30.0672 25.6778 30.067 25.678L30.4263 26.0257M30.0676 25.6773C30.068 25.6769 30.0683 25.6766 30.0686 25.6763L30.4263 26.0257M3.76997 17.2282L3.76994 17.2282L3.76953 17.2334C3.4966 20.6621 4.16519 24.4015 5.88809 29.0017C8.66327 36.4911 12.8564 43.4683 19.0678 50.9453L19.0687 50.9464C26.6228 59.9846 35.73 67.1074 46.1057 72.1285L46.1086 72.1299C49.9153 73.9418 55.0434 76.0997 60.5808 76.4542L60.5834 76.4544C60.864 76.4709 61.1762 76.4884 61.4747 76.4884C64.5403 76.4884 66.9468 75.4745 68.9528 73.3114L68.9616 73.3019L68.9699 73.292C69.987 72.0746 71.1077 70.9866 72.2134 69.9132C72.2749 69.8535 72.3364 69.7939 72.3978 69.7342C73.1771 68.988 73.9135 68.2686 74.6184 67.5134C75.6833 66.4041 76.2751 65.2238 76.2847 64.0052C76.2944 62.7816 75.7164 61.6241 74.6588 60.5665L74.6585 60.5662L64.6692 50.5934C63.9861 49.86 62.8371 48.9654 61.3753 48.9654C60.1741 48.9654 59.0099 49.5654 57.9882 50.5872L51.7884 56.7869C51.5159 57.0595 50.781 57.7677 49.672 57.7677C49.2296 57.7677 48.7771 57.6582 48.293 57.4088L48.293 57.4088L48.2877 57.4061C48.2687 57.3966 48.251 57.3866 48.2209 57.3694C48.198 57.3563 48.1667 57.3384 48.1301 57.3193C47.5647 56.9613 46.9381 56.6401 46.2842 56.3132C46.1607 56.25 46.0373 56.1876 45.9141 56.1252C45.3099 55.8196 44.7111 55.5166 44.1429 55.1467L44.143 55.1467L44.1381 55.1436C38.4216 51.5133 33.2232 46.7946 28.28 40.6982C25.5382 37.2503 23.7931 34.3766 22.5392 31.3683C22.5286 31.338 22.5186 31.313 22.5118 31.2962L22.5109 31.2938C22.5024 31.2725 22.4992 31.2643 22.4961 31.2551C22.3396 30.7855 22.2288 30.2926 22.2922 29.7771C22.354 29.2745 22.5874 28.7034 23.2042 28.0867L23.2044 28.0865L23.2046 28.0863L23.2048 28.0861L23.205 28.0859L23.2051 28.0857L23.2053 28.0855L23.2055 28.0853L23.2057 28.0851L23.2059 28.0849L23.2061 28.0847L23.2063 28.0846L23.2065 28.0844L23.2067 28.0842L23.2069 28.084L23.2071 28.0838L23.2072 28.0836L23.2074 28.0834L23.2076 28.0832L23.2078 28.083L23.208 28.0829L23.2082 28.0827L23.2084 28.0825L23.2085 28.0823L23.2087 28.0821L23.2089 28.0819L23.2091 28.0817L23.2093 28.0816L23.2095 28.0814L23.2097 28.0812L23.2098 28.081L23.21 28.0808L23.2102 28.0806L23.2104 28.0805L23.2106 28.0803L23.2108 28.0801L23.2109 28.0799L23.2111 28.0797L23.2113 28.0795L23.2115 28.0794L23.2117 28.0792L23.2118 28.079L23.212 28.0788L23.2122 28.0786L23.2124 28.0785L23.2126 28.0783L23.2127 28.0781L23.2129 28.0779L23.2131 28.0778L23.2133 28.0776L23.2134 28.0774L23.2136 28.0772L23.2138 28.077L23.214 28.0769L23.2142 28.0767L23.2143 28.0765L23.2145 28.0763L23.2147 28.0762L23.2149 28.076L23.215 28.0758L23.2152 28.0756L23.2154 28.0755L23.2156 28.0753L23.2157 28.0751L23.2159 28.0749L23.2161 28.0748L23.2162 28.0746L23.2164 28.0744L23.2166 28.0743L23.2168 28.0741L23.2169 28.0739L23.2171 28.0737L23.2173 28.0736L23.2174 28.0734L23.2176 28.0732L23.2178 28.0731L23.218 28.0729L23.2181 28.0727L23.2183 28.0726L23.2185 28.0724L23.2186 28.0722L23.2188 28.072L23.219 28.0719L23.2191 28.0717L23.2193 28.0715L23.2195 28.0714L23.2196 28.0712L23.2198 28.071L23.22 28.0709L23.2201 28.0707L23.2203 28.0705L23.2205 28.0704L23.2206 28.0702L23.2208 28.07L23.221 28.0699L23.2211 28.0697L23.2213 28.0695L23.2215 28.0694L23.2216 28.0692L23.2218 28.0691L23.222 28.0689L23.2221 28.0687L23.2223 28.0686L23.2224 28.0684L23.2226 28.0682L23.2228 28.0681L23.2229 28.0679L23.2231 28.0678L23.2233 28.0676L23.2234 28.0674L23.2236 28.0673L23.2237 28.0671L23.2239 28.0669L23.2241 28.0668L23.2242 28.0666L23.2244 28.0665L23.2245 28.0663L23.2247 28.0661L23.2249 28.066L23.225 28.0658L23.2252 28.0657L23.2253 28.0655L23.2255 28.0653L23.2257 28.0652L23.2258 28.065L23.226 28.0649L23.2261 28.0647L23.2263 28.0646L23.2265 28.0644L23.2266 28.0642L23.2268 28.0641L23.2269 28.0639L23.2271 28.0638L23.2272 28.0636L23.2274 28.0634L23.2276 28.0633L23.2277 28.0631L23.2279 28.063L23.228 28.0628L23.2282 28.0627L23.2283 28.0625L23.2285 28.0624L23.2286 28.0622L23.2288 28.062L23.229 28.0619L23.2291 28.0617L23.2293 28.0616L23.2294 28.0614L23.2296 28.0613L23.2297 28.0611L23.2299 28.061L23.23 28.0608L23.2302 28.0607L23.2303 28.0605L23.2305 28.0603L23.2307 28.0602L23.2308 28.06L23.231 28.0599L23.2311 28.0597L23.2313 28.0596L23.2314 28.0594L23.2316 28.0593L23.2317 28.0591L23.2319 28.059L23.232 28.0588L23.2322 28.0587L23.2323 28.0585L23.2325 28.0584L23.2326 28.0582L23.2328 28.0581L23.2329 28.0579L23.2331 28.0578L23.2332 28.0576L23.2334 28.0575L23.2335 28.0573L23.2337 28.0572L23.2338 28.057L23.234 28.0569L23.2341 28.0567L23.2343 28.0566L23.2344 28.0564L23.2346 28.0563L23.2347 28.0561L23.2349 28.056L23.235 28.0558L23.2352 28.0557L23.2353 28.0555L23.2355 28.0554L23.2356 28.0552L23.2358 28.0551L23.2359 28.0549L23.2361 28.0548L23.2362 28.0546L23.2364 28.0545L23.2365 28.0543L23.2367 28.0542L23.2368 28.054L23.237 28.0539L23.2371 28.0537L23.2373 28.0536L23.2374 28.0534L23.2376 28.0533L23.2377 28.0531L23.2379 28.053L23.238 28.0528L23.2382 28.0527L23.2383 28.0525L23.2385 28.0524L23.2386 28.0522L23.2387 28.0521L23.2389 28.052L23.239 28.0518L23.2392 28.0517L23.2393 28.0515L23.2395 28.0514L23.2396 28.0512L23.2398 28.0511L23.2399 28.0509L23.2401 28.0508L23.2402 28.0506L23.2404 28.0505L23.2405 28.0503L23.2407 28.0502L23.2408 28.05L23.241 28.0499L23.2411 28.0497L23.2412 28.0496L23.2414 28.0495L23.2415 28.0493L23.2417 28.0492L23.2418 28.049L23.242 28.0489L23.2421 28.0487L23.2423 28.0486L23.2424 28.0484L23.2426 28.0483L23.2427 28.0481L23.2429 28.048L23.243 28.0478L23.2431 28.0477L23.2433 28.0476L23.2434 28.0474L23.2436 28.0473L23.2437 28.0471L23.2439 28.047L23.244 28.0468L23.2442 28.0467L23.2443 28.0465L23.2445 28.0464L23.2446 28.0462L23.2447 28.0461L23.2449 28.046L23.245 28.0458L23.2452 28.0457L23.2453 28.0455L23.2455 28.0454L23.2456 28.0452L23.2458 28.0451L23.2459 28.0449L23.2461 28.0448L23.2462 28.0446L23.2463 28.0445L23.2465 28.0444L23.2466 28.0442L23.2468 28.0441L23.2469 28.0439L23.2471 28.0438L23.2472 28.0436L23.2474 28.0435L23.2475 28.0433L23.2477 28.0432L23.2478 28.043L23.248 28.0429L23.2481 28.0427L23.2482 28.0426L23.2484 28.0425L23.2485 28.0423L23.2487 28.0422L23.2488 28.042L23.249 28.0419L23.2491 28.0417L23.2493 28.0416L23.2494 28.0414L23.2496 28.0413L23.2497 28.0411L23.2499 28.041L23.25 28.0408L23.2501 28.0407L23.2503 28.0406L23.2504 28.0404L23.2506 28.0403L23.2507 28.0401L23.2509 28.04L23.251 28.0398L23.2512 28.0397L23.2513 28.0395L23.2515 28.0394L23.2516 28.0392L23.2518 28.0391L23.2519 28.0389L23.2521 28.0388L23.2522 28.0386L23.2523 28.0385L23.2525 28.0384L23.2526 28.0382L23.2528 28.0381L23.2529 28.0379L23.2531 28.0378L23.2532 28.0376L23.2534 28.0375L23.2535 28.0373L23.2537 28.0372L23.2538 28.037L23.254 28.0369L23.2541 28.0367L23.2543 28.0366L23.2544 28.0364L23.2546 28.0363L23.2547 28.0361L23.2549 28.036L23.255 28.0358L23.2552 28.0357L23.2553 28.0355L23.2555 28.0354L23.2556 28.0352L23.2558 28.0351L23.2559 28.0349L23.2561 28.0348L23.2562 28.0346L23.2564 28.0345L23.2565 28.0343L23.2567 28.0342L23.2568 28.034L23.257 28.0339L23.2571 28.0337L23.2573 28.0336L23.2574 28.0334L23.2576 28.0333L23.2577 28.0331L23.2579 28.033L23.258 28.0328L23.2582 28.0327L23.2583 28.0325L23.2585 28.0324L23.2586 28.0322L23.2588 28.0321L23.2589 28.0319L23.2591 28.0318L23.2592 28.0316L23.2594 28.0315L23.2595 28.0313L23.2597 28.0312L23.2598 28.031L23.26 28.0309L23.2601 28.0307L23.2603 28.0306L23.2604 28.0304L23.2606 28.0303L23.2607 28.0301L23.2609 28.0299L23.2611 28.0298L23.2612 28.0296L23.2614 28.0295L23.2615 28.0293L23.2617 28.0292L23.2618 28.029L23.262 28.0289L23.2621 28.0287L23.2623 28.0286L23.2624 28.0284L23.2626 28.0282L23.2628 28.0281L23.2629 28.0279L23.2631 28.0278L23.2632 28.0276L23.2634 28.0275L23.2635 28.0273L23.2637 28.0272L23.2638 28.027L23.264 28.0268L23.2642 28.0267L23.2643 28.0265L23.2645 28.0264L23.2646 28.0262L23.2648 28.0261L23.2649 28.0259L23.2651 28.0257L23.2653 28.0256L23.2654 28.0254L23.2656 28.0253L23.2657 28.0251L23.2659 28.0249L23.2661 28.0248L23.2662 28.0246L23.2664 28.0245L23.2665 28.0243L23.2667 28.0241L23.2669 28.024L23.267 28.0238L23.2672 28.0237L23.2673 28.0235L23.2675 28.0233L23.2677 28.0232L23.2678 28.023L23.268 28.0229L23.2681 28.0227L23.2683 28.0225L23.2685 28.0224L23.2686 28.0222L23.2688 28.022L23.269 28.0219L23.2691 28.0217L23.2693 28.0216L23.2695 28.0214L23.2696 28.0212L23.2698 28.0211L23.2699 28.0209L23.2701 28.0207L23.2703 28.0206L23.2704 28.0204L23.2706 28.0202L23.2708 28.0201L23.2709 28.0199L23.2711 28.0197L23.2713 28.0196L23.2714 28.0194L23.2716 28.0192L23.2718 28.0191L23.2719 28.0189L23.2721 28.0187L23.2723 28.0186L23.2724 28.0184L23.2726 28.0182L23.2728 28.0181L23.2729 28.0179L23.2731 28.0177L23.2733 28.0176L23.2735 28.0174L23.2736 28.0172L23.2738 28.017L23.274 28.0169L23.2741 28.0167L23.2743 28.0165L23.2745 28.0164L23.2747 28.0162L23.2748 28.016L23.275 28.0158L23.2752 28.0157L23.2753 28.0155L23.2755 28.0153L23.2757 28.0152L23.2759 28.015L23.276 28.0148L23.2762 28.0146L23.2764 28.0145C24.7562 26.7033 26.1079 25.3359 27.5147 23.9127C27.6304 23.7956 27.7465 23.6782 27.8631 23.5604C28.1213 23.3022 28.3792 23.04 28.6356 22.7796L28.6359 22.7792C28.8931 22.5179 29.1486 22.2582 29.4039 22.003C30.4843 20.9226 31.1086 19.7586 31.1086 18.5495C31.1086 17.3405 30.4843 16.1764 29.4039 15.0961L24.4665 10.1587C24.178 9.86193 23.8897 9.56948 23.6048 9.28049L23.5983 9.27393C23.3101 8.98155 23.0254 8.69276 22.7451 8.40419L22.7426 8.40163C22.5934 8.25019 22.4453 8.09965 22.2982 7.95001C21.3411 6.97684 20.4216 6.0418 19.4524 5.1445C18.4424 4.1201 17.2964 3.56133 16.1204 3.56133C14.9313 3.56133 13.752 4.11716 12.723 5.11067L12.7229 5.11061L12.7167 5.11682L6.55012 11.2834C4.87499 12.9585 3.97929 14.9082 3.76997 17.2282Z" fill="#0C397E" stroke="white"/>
</g>
<defs>
<clipPath id="clip0_2041_126">
<rect width="80" height="80" fill="white"/>
</clipPath>
</defs>
</svg>
