<svg width="100" height="100" viewBox="0 0 100 100" fill="none" xmlns="http://www.w3.org/2000/svg">
<g clip-path="url(#clip0_2041_247)">
<path d="M90.25 53.2828C90.25 52.9475 90.4202 52.5913 90.6976 52.3138C90.975 52.0364 91.3313 51.8662 91.6666 51.8662C92.1098 51.8662 92.4596 52.0128 92.6981 52.2513C92.9365 52.4897 93.0832 52.8396 93.0832 53.2828C93.0832 53.726 92.9365 54.0758 92.6981 54.3143C92.4596 54.5527 92.1098 54.6994 91.6666 54.6994C91.2234 54.6994 90.8735 54.5527 90.6351 54.3143C90.3966 54.0758 90.25 53.726 90.25 53.2828Z" fill="#0C397E" stroke="#F0FAFF" stroke-width="0.5"/>
<path d="M95.25 48.2838C95.25 47.9484 95.4202 47.5921 95.6976 47.3147C95.975 47.0374 96.3313 46.8672 96.6666 46.8672C97.1098 46.8672 97.4596 47.0138 97.6981 47.2523C97.9365 47.4907 98.0832 47.8406 98.0832 48.2838C98.0832 48.727 97.9365 49.0768 97.6981 49.3153C97.4596 49.5537 97.1098 49.7003 96.6666 49.7003C96.2234 49.7003 95.8735 49.5537 95.6351 49.3153C95.3966 49.0768 95.25 48.727 95.25 48.2838Z" fill="#0C397E" stroke="#F0FAFF" stroke-width="0.5"/>
<path d="M85.25 48.2838C85.25 47.9484 85.4202 47.5921 85.6975 47.3147C85.9749 47.0374 86.3312 46.8672 86.6666 46.8672C87.1098 46.8672 87.4596 47.0138 87.6981 47.2523C87.9365 47.4907 88.0832 47.8406 88.0832 48.2838C88.0832 48.727 87.9365 49.0768 87.6981 49.3153C87.4596 49.5537 87.1098 49.7003 86.6666 49.7003C86.2234 49.7003 85.8735 49.5537 85.6351 49.3153C85.3966 49.0768 85.25 48.727 85.25 48.2838Z" fill="#0C397E" stroke="#F0FAFF" stroke-width="0.5"/>
<path d="M80.25 53.2828C80.25 52.9475 80.4202 52.5913 80.6976 52.3138C80.975 52.0364 81.3313 51.8662 81.6666 51.8662C82.1098 51.8662 82.4596 52.0128 82.6981 52.2513C82.9365 52.4897 83.0832 52.8396 83.0832 53.2828C83.0832 53.726 82.9365 54.0758 82.6981 54.3143C82.4596 54.5527 82.1098 54.6994 81.6666 54.6994C81.2234 54.6994 80.8735 54.5527 80.6351 54.3143C80.3966 54.0758 80.25 53.726 80.25 53.2828Z" fill="#0C397E" stroke="#F0FAFF" stroke-width="0.5"/>
<path d="M70.25 53.2828C70.25 52.9475 70.4202 52.5912 70.6976 52.3138C70.9749 52.0364 71.3312 51.8662 71.6666 51.8662C72.1098 51.8662 72.4596 52.0128 72.6981 52.2513C72.9365 52.4897 73.0832 52.8396 73.0832 53.2828C73.0832 53.726 72.9365 54.0758 72.6981 54.3143C72.4596 54.5527 72.1098 54.6994 71.6666 54.6994C71.2234 54.6994 70.8735 54.5527 70.6351 54.3143C70.3966 54.0758 70.25 53.726 70.25 53.2828Z" fill="#0C397E" stroke="#F0FAFF" stroke-width="0.5"/>
<path d="M75.25 48.2838C75.25 47.9484 75.4202 47.5921 75.6976 47.3147C75.975 47.0374 76.3313 46.8672 76.6666 46.8672C77.1098 46.8672 77.4596 47.0138 77.6981 47.2523C77.9365 47.4907 78.0832 47.8406 78.0832 48.2838C78.0832 48.727 77.9365 49.0768 77.6981 49.3153C77.4596 49.5537 77.1098 49.7003 76.6666 49.7003C76.2234 49.7003 75.8735 49.5537 75.6351 49.3153C75.3966 49.0768 75.25 48.727 75.25 48.2838Z" fill="#0C397E" stroke="#F0FAFF" stroke-width="0.5"/>
<path d="M65.25 48.2838C65.25 47.9484 65.4202 47.5921 65.6976 47.3147C65.975 47.0374 66.3313 46.8672 66.6666 46.8672C67.1098 46.8672 67.4596 47.0138 67.6981 47.2523C67.9365 47.4907 68.0832 47.8406 68.0832 48.2838C68.0832 48.727 67.9365 49.0768 67.6981 49.3153C67.4596 49.5537 67.1098 49.7003 66.6666 49.7003C66.2234 49.7003 65.8735 49.5537 65.6351 49.3153C65.3966 49.0768 65.25 48.727 65.25 48.2838Z" fill="#0C397E" stroke="#F0FAFF" stroke-width="0.5"/>
<path d="M60.25 53.2828C60.25 52.9475 60.4202 52.5913 60.6976 52.3138C60.975 52.0364 61.3313 51.8662 61.6666 51.8662C62.1099 51.8662 62.4597 52.0128 62.6982 52.2513C62.9366 52.4897 63.0832 52.8396 63.0832 53.2828C63.0832 53.726 62.9365 54.0758 62.6981 54.3143C62.4596 54.5527 62.1098 54.6994 61.6666 54.6994C61.2234 54.6994 60.8735 54.5527 60.6351 54.3143C60.3966 54.0758 60.25 53.726 60.25 53.2828Z" fill="#0C397E" stroke="#F0FAFF" stroke-width="0.5"/>
<path d="M50.25 53.2828C50.25 52.9475 50.4202 52.5913 50.6976 52.3138C50.975 52.0364 51.3313 51.8662 51.6666 51.8662C52.1098 51.8662 52.4596 52.0128 52.6981 52.2513C52.9365 52.4897 53.0832 52.8396 53.0832 53.2828C53.0832 53.726 52.9365 54.0758 52.6981 54.3143C52.4596 54.5527 52.1098 54.6994 51.6666 54.6994C51.2234 54.6994 50.8735 54.5527 50.6351 54.3143C50.3966 54.0758 50.25 53.726 50.25 53.2828Z" fill="#0C397E" stroke="#F0FAFF" stroke-width="0.5"/>
<path d="M55.25 48.2838C55.25 47.9484 55.4202 47.5921 55.6975 47.3147C55.9749 47.0374 56.3312 46.8672 56.6666 46.8672C57.1098 46.8672 57.4596 47.0138 57.6981 47.2523C57.9365 47.4907 58.0832 47.8406 58.0832 48.2838C58.0832 48.727 57.9365 49.0768 57.6981 49.3153C57.4596 49.5537 57.1098 49.7003 56.6666 49.7003C56.2234 49.7003 55.8735 49.5537 55.6351 49.3153C55.3966 49.0768 55.25 48.727 55.25 48.2838Z" fill="#0C397E" stroke="#F0FAFF" stroke-width="0.5"/>
<path d="M91.6665 41.8672H91.6666C92.1098 41.8672 92.4596 42.0138 92.6981 42.2523C92.9365 42.4907 93.0832 42.8406 93.0832 43.2838C93.0832 43.727 92.9365 44.0768 92.6981 44.3153C92.4596 44.5537 92.1098 44.7003 91.6666 44.7003C91.2234 44.7003 90.8735 44.5537 90.6351 44.3153C90.3966 44.0768 90.25 43.727 90.25 43.2838C90.25 42.9484 90.4202 42.5921 90.6976 42.3147C90.975 42.0372 91.3313 41.8671 91.6665 41.8672Z" fill="#0C397E" stroke="#F0FAFF" stroke-width="0.5"/>
<path d="M90.25 33.2838C90.25 32.9484 90.4202 32.5921 90.6976 32.3147C90.975 32.0374 91.3313 31.8672 91.6666 31.8672C92.1098 31.8672 92.4596 32.0138 92.6981 32.2523C92.9365 32.4907 93.0832 32.8406 93.0832 33.2838C93.0832 33.727 92.9365 34.0768 92.6981 34.3153C92.4596 34.5537 92.1098 34.7003 91.6666 34.7003C91.2234 34.7003 90.8735 34.5537 90.6351 34.3153C90.3966 34.0768 90.25 33.727 90.25 33.2838Z" fill="#0C397E" stroke="#F0FAFF" stroke-width="0.5"/>
<path d="M95.25 38.2828C95.25 37.9475 95.4202 37.5913 95.6976 37.3138C95.975 37.0364 96.3313 36.8662 96.6666 36.8662C97.1098 36.8662 97.4596 37.0128 97.6981 37.2513C97.9365 37.4897 98.0832 37.8396 98.0832 38.2828C98.0832 38.726 97.9365 39.0758 97.6981 39.3143C97.4596 39.5527 97.1098 39.6994 96.6666 39.6994C96.2234 39.6994 95.8735 39.5527 95.6351 39.3143C95.3966 39.0758 95.25 38.726 95.25 38.2828Z" fill="#0C397E" stroke="#F0FAFF" stroke-width="0.5"/>
<path d="M85.25 38.2828C85.25 37.9475 85.4202 37.5912 85.6976 37.3138C85.9749 37.0364 86.3312 36.8662 86.6666 36.8662C87.1098 36.8662 87.4596 37.0128 87.6981 37.2513C87.9365 37.4897 88.0832 37.8396 88.0832 38.2828C88.0832 38.726 87.9365 39.0758 87.6981 39.3143C87.4596 39.5527 87.1098 39.6994 86.6666 39.6994C86.2234 39.6994 85.8735 39.5527 85.6351 39.3143C85.3966 39.0758 85.25 38.726 85.25 38.2828Z" fill="#0C397E" stroke="#F0FAFF" stroke-width="0.5"/>
<path d="M81.6665 41.8672H81.6666C82.1098 41.8672 82.4596 42.0138 82.6981 42.2523C82.9365 42.4907 83.0832 42.8406 83.0832 43.2838C83.0832 43.727 82.9365 44.0768 82.6981 44.3153C82.4596 44.5537 82.1098 44.7003 81.6666 44.7003C81.2234 44.7003 80.8735 44.5537 80.6351 44.3153C80.3966 44.0768 80.25 43.727 80.25 43.2838C80.25 42.9484 80.4202 42.5921 80.6976 42.3147C80.975 42.0372 81.3313 41.8671 81.6665 41.8672Z" fill="#0C397E" stroke="#F0FAFF" stroke-width="0.5"/>
<path d="M71.6665 41.8672H71.6666C72.1098 41.8672 72.4596 42.0138 72.6981 42.2523C72.9365 42.4907 73.0832 42.8406 73.0832 43.2838C73.0832 43.727 72.9365 44.0768 72.6981 44.3153C72.4596 44.5537 72.1098 44.7003 71.6666 44.7003C71.2234 44.7003 70.8735 44.5537 70.6351 44.3153C70.3966 44.0768 70.25 43.727 70.25 43.2838C70.25 42.9484 70.4202 42.592 70.6976 42.3147C70.9749 42.0373 71.3312 41.8671 71.6665 41.8672Z" fill="#0C397E" stroke="#F0FAFF" stroke-width="0.5"/>
<path d="M80.25 33.2838C80.25 32.9484 80.4202 32.5921 80.6976 32.3147C80.975 32.0374 81.3313 31.8672 81.6666 31.8672C82.1098 31.8672 82.4596 32.0138 82.6981 32.2523C82.9365 32.4907 83.0832 32.8406 83.0832 33.2838C83.0832 33.727 82.9365 34.0768 82.6981 34.3153C82.4596 34.5537 82.1098 34.7003 81.6666 34.7003C81.2234 34.7003 80.8735 34.5537 80.6351 34.3153C80.3966 34.0768 80.25 33.727 80.25 33.2838Z" fill="#0C397E" stroke="#F0FAFF" stroke-width="0.5"/>
<path d="M70.25 33.2838C70.25 32.9484 70.4202 32.5921 70.6975 32.3147C70.9749 32.0374 71.3312 31.8672 71.6666 31.8672C72.1098 31.8672 72.4596 32.0138 72.6981 32.2523C72.9365 32.4907 73.0832 32.8406 73.0832 33.2838C73.0832 33.727 72.9365 34.0768 72.6981 34.3153C72.4596 34.5537 72.1098 34.7003 71.6666 34.7003C71.2234 34.7003 70.8735 34.5537 70.6351 34.3153C70.3966 34.0768 70.25 33.727 70.25 33.2838Z" fill="#0C397E" stroke="#F0FAFF" stroke-width="0.5"/>
<path d="M75.25 38.2828C75.25 37.9475 75.4202 37.5913 75.6976 37.3138C75.975 37.0364 76.3313 36.8662 76.6666 36.8662C77.1098 36.8662 77.4596 37.0128 77.6981 37.2513C77.9365 37.4897 78.0832 37.8396 78.0832 38.2828C78.0832 38.726 77.9365 39.0758 77.6981 39.3143C77.4596 39.5527 77.1098 39.6994 76.6666 39.6994C76.2234 39.6994 75.8735 39.5527 75.6351 39.3143C75.3966 39.0758 75.25 38.726 75.25 38.2828Z" fill="#0C397E" stroke="#F0FAFF" stroke-width="0.5"/>
<path d="M65.25 38.2828C65.25 37.9475 65.4202 37.5913 65.6976 37.3138C65.975 37.0364 66.3313 36.8662 66.6666 36.8662C67.1098 36.8662 67.4596 37.0128 67.6981 37.2513C67.9365 37.4897 68.0832 37.8396 68.0832 38.2828C68.0832 38.726 67.9365 39.0758 67.6981 39.3143C67.4596 39.5527 67.1098 39.6994 66.6666 39.6994C66.2234 39.6994 65.8735 39.5527 65.6351 39.3143C65.3966 39.0758 65.25 38.726 65.25 38.2828Z" fill="#0C397E" stroke="#F0FAFF" stroke-width="0.5"/>
<path d="M61.6665 41.8672H61.6666C62.1099 41.8672 62.4598 42.0138 62.6982 42.2523C62.9367 42.4907 63.0832 42.8405 63.0832 43.2837V43.2838C63.0832 43.727 62.9365 44.0768 62.6981 44.3153C62.4596 44.5537 62.1098 44.7003 61.6666 44.7003C61.2234 44.7003 60.8735 44.5537 60.6351 44.3153C60.3966 44.0768 60.25 43.727 60.25 43.2838C60.25 42.9484 60.4202 42.5921 60.6976 42.3147C60.975 42.0372 61.3313 41.8671 61.6665 41.8672Z" fill="#0C397E" stroke="#F0FAFF" stroke-width="0.5"/>
<path d="M51.6665 41.8672H51.6666C52.1098 41.8672 52.4596 42.0138 52.6981 42.2523C52.9365 42.4907 53.0832 42.8406 53.0832 43.2838C53.0832 43.727 52.9365 44.0768 52.6981 44.3153C52.4596 44.5537 52.1098 44.7003 51.6666 44.7003C51.2234 44.7003 50.8735 44.5537 50.6351 44.3153C50.3966 44.0768 50.25 43.7269 50.25 43.2838C50.25 42.9484 50.4202 42.5921 50.6976 42.3147C50.975 42.0372 51.3313 41.8671 51.6665 41.8672Z" fill="#0C397E" stroke="#F0FAFF" stroke-width="0.5"/>
<path d="M60.25 33.2838C60.25 32.9484 60.4202 32.5921 60.6976 32.3147C60.975 32.0374 61.3313 31.8672 61.6666 31.8672C62.1099 31.8672 62.4597 32.0138 62.6982 32.2523C62.9366 32.4907 63.0832 32.8406 63.0832 33.2838C63.0832 33.727 62.9365 34.0768 62.6981 34.3153C62.4596 34.5537 62.1098 34.7003 61.6666 34.7003C61.2234 34.7003 60.8735 34.5537 60.6351 34.3153C60.3966 34.0768 60.25 33.727 60.25 33.2838Z" fill="#0C397E" stroke="#F0FAFF" stroke-width="0.5"/>
<path d="M50.25 33.2838C50.25 32.9484 50.4202 32.5921 50.6976 32.3147C50.975 32.0374 51.3313 31.8672 51.6666 31.8672C52.1098 31.8672 52.4596 32.0138 52.6981 32.2523C52.9365 32.4907 53.0832 32.8406 53.0832 33.2838C53.0832 33.727 52.9365 34.0768 52.6981 34.3153C52.4596 34.5537 52.1098 34.7003 51.6666 34.7003C51.2234 34.7003 50.8735 34.5537 50.6351 34.3153C50.3966 34.0768 50.25 33.727 50.25 33.2838Z" fill="#0C397E" stroke="#F0FAFF" stroke-width="0.5"/>
<path d="M55.25 38.2828C55.25 37.9475 55.4202 37.5912 55.6976 37.3138C55.9749 37.0364 56.3312 36.8662 56.6666 36.8662C57.1098 36.8662 57.4596 37.0128 57.6981 37.2513C57.9365 37.4897 58.0832 37.8396 58.0832 38.2828C58.0832 38.726 57.9365 39.0758 57.6981 39.3143C57.4596 39.5527 57.1098 39.6994 56.6666 39.6994C56.2234 39.6994 55.8735 39.5527 55.6351 39.3143C55.3966 39.0758 55.25 38.726 55.25 38.2828Z" fill="#0C397E" stroke="#F0FAFF" stroke-width="0.5"/>
<path d="M90.25 23.2828C90.25 22.9475 90.4202 22.5913 90.6976 22.3138C90.975 22.0364 91.3313 21.8662 91.6666 21.8662C92.1098 21.8662 92.4596 22.0128 92.6981 22.2513C92.9365 22.4897 93.0832 22.8396 93.0832 23.2828C93.0832 23.726 92.9365 24.0758 92.6981 24.3143C92.4596 24.5527 92.1098 24.6994 91.6666 24.6994C91.2234 24.6994 90.8735 24.5527 90.6351 24.3143C90.3966 24.0758 90.25 23.726 90.25 23.2828Z" fill="#0C397E" stroke="#F0FAFF" stroke-width="0.5"/>
<path d="M96.6665 26.8672H96.6666C97.1098 26.8672 97.4596 27.0138 97.6981 27.2523C97.9365 27.4907 98.0832 27.8406 98.0832 28.2838C98.0832 28.727 97.9365 29.0768 97.6981 29.3153C97.4596 29.5537 97.1098 29.7003 96.6666 29.7003C96.2234 29.7003 95.8735 29.5537 95.6351 29.3153C95.3966 29.0768 95.25 28.727 95.25 28.2838C95.25 27.9484 95.4202 27.5921 95.6976 27.3147C95.975 27.0372 96.3313 26.8671 96.6665 26.8672Z" fill="#0C397E" stroke="#F0FAFF" stroke-width="0.5"/>
<path d="M86.6665 26.8672H86.6666C87.1098 26.8672 87.4596 27.0138 87.6981 27.2523C87.9365 27.4907 88.0832 27.8406 88.0832 28.2838C88.0832 28.727 87.9365 29.0768 87.6981 29.3153C87.4596 29.5537 87.1098 29.7003 86.6666 29.7003C86.2234 29.7003 85.8735 29.5537 85.6351 29.3153C85.3966 29.0768 85.25 28.727 85.25 28.2838C85.25 27.9484 85.4202 27.592 85.6976 27.3147C85.9749 27.0373 86.3312 26.8671 86.6665 26.8672Z" fill="#0C397E" stroke="#F0FAFF" stroke-width="0.5"/>
<path d="M95.25 18.2838C95.25 17.9484 95.4202 17.5921 95.6976 17.3147C95.975 17.0374 96.3313 16.8672 96.6666 16.8672C97.1098 16.8672 97.4596 17.0138 97.6981 17.2523C97.9365 17.4907 98.0832 17.8406 98.0832 18.2838C98.0832 18.727 97.9365 19.0768 97.6981 19.3153C97.4596 19.5537 97.1098 19.7003 96.6666 19.7003C96.2234 19.7003 95.8735 19.5537 95.6351 19.3153C95.3966 19.0768 95.25 18.727 95.25 18.2838Z" fill="#0C397E" stroke="#F0FAFF" stroke-width="0.5"/>
<path d="M85.25 18.2838C85.25 17.9484 85.4202 17.5921 85.6975 17.3147C85.9749 17.0374 86.3312 16.8672 86.6666 16.8672C87.1098 16.8672 87.4596 17.0138 87.6981 17.2523C87.9365 17.4907 88.0832 17.8406 88.0832 18.2838C88.0832 18.727 87.9365 19.0768 87.6981 19.3153C87.4596 19.5537 87.1098 19.7003 86.6666 19.7003C86.2234 19.7003 85.8735 19.5537 85.6351 19.3153C85.3966 19.0768 85.25 18.727 85.25 18.2838Z" fill="#0C397E" stroke="#F0FAFF" stroke-width="0.5"/>
<path d="M80.25 23.2828C80.25 22.9475 80.4202 22.5913 80.6976 22.3138C80.975 22.0364 81.3313 21.8662 81.6666 21.8662C82.1098 21.8662 82.4596 22.0128 82.6981 22.2513C82.9365 22.4897 83.0832 22.8396 83.0832 23.2828C83.0832 23.726 82.9365 24.0758 82.6981 24.3143C82.4596 24.5527 82.1098 24.6994 81.6666 24.6994C81.2234 24.6994 80.8735 24.5527 80.6351 24.3143C80.3966 24.0758 80.25 23.726 80.25 23.2828Z" fill="#0C397E" stroke="#F0FAFF" stroke-width="0.5"/>
<path d="M70.25 23.2828C70.25 22.9475 70.4202 22.5912 70.6976 22.3138C70.9749 22.0364 71.3312 21.8662 71.6666 21.8662C72.1098 21.8662 72.4596 22.0128 72.6981 22.2513C72.9365 22.4897 73.0832 22.8396 73.0832 23.2828C73.0832 23.726 72.9365 24.0758 72.6981 24.3143C72.4596 24.5527 72.1098 24.6994 71.6666 24.6994C71.2234 24.6994 70.8735 24.5527 70.6351 24.3143C70.3966 24.0758 70.25 23.726 70.25 23.2828Z" fill="#0C397E" stroke="#F0FAFF" stroke-width="0.5"/>
<path d="M76.6665 26.8672H76.6666C77.1098 26.8672 77.4596 27.0138 77.6981 27.2523C77.9365 27.4907 78.0832 27.8406 78.0832 28.2838C78.0832 28.727 77.9365 29.0768 77.6981 29.3153C77.4596 29.5537 77.1098 29.7003 76.6666 29.7003C76.2234 29.7003 75.8735 29.5537 75.6351 29.3153C75.3966 29.0768 75.25 28.727 75.25 28.2838C75.25 27.9484 75.4202 27.5921 75.6976 27.3147C75.975 27.0372 76.3313 26.8671 76.6665 26.8672Z" fill="#0C397E" stroke="#F0FAFF" stroke-width="0.5"/>
<path d="M66.6665 26.8672H66.6666C67.1098 26.8672 67.4596 27.0138 67.6981 27.2523C67.9365 27.4907 68.0832 27.8406 68.0832 28.2838C68.0832 28.727 67.9365 29.0768 67.6981 29.3153C67.4596 29.5537 67.1098 29.7003 66.6666 29.7003C66.2234 29.7003 65.8735 29.5537 65.6351 29.3153C65.3966 29.0768 65.25 28.727 65.25 28.2838C65.25 27.9484 65.4202 27.5921 65.6976 27.3147C65.975 27.0372 66.3313 26.8671 66.6665 26.8672Z" fill="#0C397E" stroke="#F0FAFF" stroke-width="0.5"/>
<path d="M75.25 18.2838C75.25 17.9484 75.4202 17.5921 75.6976 17.3147C75.975 17.0374 76.3313 16.8672 76.6666 16.8672C77.1098 16.8672 77.4596 17.0138 77.6981 17.2523C77.9365 17.4907 78.0832 17.8406 78.0832 18.2838C78.0832 18.727 77.9365 19.0768 77.6981 19.3153C77.4596 19.5537 77.1098 19.7003 76.6666 19.7003C76.2234 19.7003 75.8735 19.5537 75.6351 19.3153C75.3966 19.0768 75.25 18.727 75.25 18.2838Z" fill="#0C397E" stroke="#F0FAFF" stroke-width="0.5"/>
<path d="M65.25 18.2838C65.25 17.9484 65.4202 17.5921 65.6976 17.3147C65.975 17.0374 66.3313 16.8672 66.6666 16.8672C67.1098 16.8672 67.4596 17.0138 67.6981 17.2523C67.9365 17.4907 68.0832 17.8406 68.0832 18.2838C68.0832 18.727 67.9365 19.0768 67.6981 19.3153C67.4596 19.5537 67.1098 19.7003 66.6666 19.7003C66.2234 19.7003 65.8735 19.5537 65.6351 19.3153C65.3966 19.0768 65.25 18.727 65.25 18.2838Z" fill="#0C397E" stroke="#F0FAFF" stroke-width="0.5"/>
<path d="M60.25 23.2828C60.25 22.9475 60.4202 22.5913 60.6976 22.3138C60.975 22.0364 61.3313 21.8662 61.6666 21.8662C62.1099 21.8662 62.4597 22.0128 62.6982 22.2513C62.9366 22.4897 63.0832 22.8396 63.0832 23.2828C63.0832 23.726 62.9365 24.0758 62.6981 24.3143C62.4596 24.5527 62.1098 24.6994 61.6666 24.6994C61.2234 24.6994 60.8735 24.5527 60.6351 24.3143C60.3966 24.0758 60.25 23.726 60.25 23.2828Z" fill="#0C397E" stroke="#F0FAFF" stroke-width="0.5"/>
<path d="M50.25 23.2828C50.25 22.9475 50.4202 22.5913 50.6976 22.3138C50.975 22.0364 51.3313 21.8662 51.6666 21.8662C52.1098 21.8662 52.4596 22.0128 52.6981 22.2513C52.9365 22.4897 53.0832 22.8396 53.0832 23.2828C53.0832 23.726 52.9365 24.0758 52.6981 24.3143C52.4596 24.5527 52.1098 24.6994 51.6666 24.6994C51.2234 24.6994 50.8735 24.5527 50.6351 24.3143C50.3966 24.0758 50.25 23.726 50.25 23.2828Z" fill="#0C397E" stroke="#F0FAFF" stroke-width="0.5"/>
<path d="M56.6665 26.8672H56.6666C57.1098 26.8672 57.4596 27.0138 57.6981 27.2523C57.9365 27.4907 58.0832 27.8406 58.0832 28.2838C58.0832 28.727 57.9365 29.0768 57.6981 29.3153C57.4596 29.5537 57.1098 29.7003 56.6666 29.7003C56.2234 29.7003 55.8735 29.5537 55.6351 29.3153C55.3966 29.0768 55.25 28.727 55.25 28.2838C55.25 27.9484 55.4202 27.592 55.6976 27.3147C55.9749 27.0373 56.3312 26.8671 56.6665 26.8672Z" fill="#0C397E" stroke="#F0FAFF" stroke-width="0.5"/>
<path d="M55.25 18.2838C55.25 17.9484 55.4202 17.5921 55.6975 17.3147C55.9749 17.0374 56.3312 16.8672 56.6666 16.8672C57.1098 16.8672 57.4596 17.0138 57.6981 17.2523C57.9365 17.4907 58.0832 17.8406 58.0832 18.2838C58.0832 18.727 57.9365 19.0768 57.6981 19.3153C57.4596 19.5537 57.1098 19.7003 56.6666 19.7003C56.2234 19.7003 55.8735 19.5537 55.6351 19.3153C55.3966 19.0768 55.25 18.727 55.25 18.2838Z" fill="#0C397E" stroke="#F0FAFF" stroke-width="0.5"/>
<path d="M91.6665 11.8672H91.6666C92.1098 11.8672 92.4596 12.0138 92.6981 12.2523C92.9365 12.4907 93.0832 12.8406 93.0832 13.2838C93.0832 13.727 92.9365 14.0768 92.6981 14.3153C92.4596 14.5537 92.1098 14.7003 91.6666 14.7003C91.2234 14.7003 90.8735 14.5537 90.6351 14.3153C90.3966 14.0768 90.25 13.727 90.25 13.2838C90.25 12.9484 90.4202 12.5921 90.6976 12.3147C90.975 12.0372 91.3313 11.8671 91.6665 11.8672Z" fill="#0C397E" stroke="#F0FAFF" stroke-width="0.5"/>
<path d="M90.25 3.28376C90.25 2.94838 90.4202 2.59212 90.6976 2.31474C90.975 2.03735 91.3313 1.86719 91.6666 1.86719C92.1098 1.86719 92.4596 2.01381 92.6981 2.25226C92.9365 2.4907 93.0832 2.84058 93.0832 3.28376C93.0832 3.72695 92.9365 4.07682 92.6981 4.31527C92.4596 4.55372 92.1098 4.70034 91.6666 4.70034C91.2234 4.70034 90.8735 4.55372 90.6351 4.31527C90.3966 4.07682 90.25 3.72695 90.25 3.28376Z" fill="#0C397E" stroke="#F0FAFF" stroke-width="0.5"/>
<path d="M95.25 8.28279C95.25 7.94752 95.4202 7.59125 95.6976 7.31383C95.975 7.03641 96.3313 6.86621 96.6666 6.86621C97.1098 6.86621 97.4596 7.01283 97.6981 7.25128C97.9365 7.48973 98.0832 7.8396 98.0832 8.28279C98.0832 8.72598 97.9365 9.07585 97.6981 9.3143C97.4596 9.55274 97.1098 9.69937 96.6666 9.69937C96.2234 9.69937 95.8735 9.55274 95.6351 9.3143C95.3966 9.07585 95.25 8.72598 95.25 8.28279Z" fill="#0C397E" stroke="#F0FAFF" stroke-width="0.5"/>
<path d="M85.25 8.28279C85.25 7.9475 85.4202 7.59123 85.6976 7.31382C85.9749 7.03642 86.3312 6.86621 86.6666 6.86621C87.1098 6.86621 87.4596 7.01283 87.6981 7.25128C87.9365 7.48973 88.0832 7.8396 88.0832 8.28279C88.0832 8.72598 87.9365 9.07585 87.6981 9.3143C87.4596 9.55274 87.1098 9.69937 86.6666 9.69937C86.2234 9.69937 85.8735 9.55274 85.6351 9.3143C85.3966 9.07585 85.25 8.72598 85.25 8.28279Z" fill="#0C397E" stroke="#F0FAFF" stroke-width="0.5"/>
<path d="M81.6665 11.8672H81.6666C82.1098 11.8672 82.4596 12.0138 82.6981 12.2523C82.9365 12.4907 83.0832 12.8406 83.0832 13.2838C83.0832 13.727 82.9365 14.0768 82.6981 14.3153C82.4596 14.5537 82.1098 14.7003 81.6666 14.7003C81.2234 14.7003 80.8735 14.5537 80.6351 14.3153C80.3966 14.0768 80.25 13.727 80.25 13.2838C80.25 12.9484 80.4202 12.5921 80.6976 12.3147C80.975 12.0372 81.3313 11.8671 81.6665 11.8672Z" fill="#0C397E" stroke="#F0FAFF" stroke-width="0.5"/>
<path d="M71.6665 11.8672H71.6666C72.1098 11.8672 72.4596 12.0138 72.6981 12.2523C72.9365 12.4907 73.0832 12.8406 73.0832 13.2838C73.0832 13.727 72.9365 14.0768 72.6981 14.3153C72.4596 14.5537 72.1098 14.7003 71.6666 14.7003C71.2234 14.7003 70.8735 14.5537 70.6351 14.3153C70.3966 14.0768 70.25 13.727 70.25 13.2838C70.25 12.9484 70.4202 12.592 70.6976 12.3147C70.9749 12.0373 71.3312 11.8671 71.6665 11.8672Z" fill="#0C397E" stroke="#F0FAFF" stroke-width="0.5"/>
<path d="M80.25 3.28376C80.25 2.94838 80.4202 2.59212 80.6976 2.31474C80.975 2.03735 81.3313 1.86719 81.6666 1.86719C82.1098 1.86719 82.4596 2.01381 82.6981 2.25226C82.9365 2.49071 83.0832 2.84058 83.0832 3.28376C83.0832 3.72695 82.9365 4.07682 82.6981 4.31527C82.4596 4.55372 82.1098 4.70034 81.6666 4.70034C81.2234 4.70034 80.8735 4.55372 80.6351 4.31527C80.3966 4.07682 80.25 3.72695 80.25 3.28376Z" fill="#0C397E" stroke="#F0FAFF" stroke-width="0.5"/>
<path d="M70.25 3.28376C70.25 2.94837 70.4202 2.5921 70.6975 2.31473C70.9749 2.03736 71.3312 1.86719 71.6666 1.86719C72.1098 1.86719 72.4596 2.01381 72.6981 2.25226C72.9365 2.49071 73.0832 2.84058 73.0832 3.28376C73.0832 3.72695 72.9365 4.07682 72.6981 4.31527C72.4596 4.55372 72.1098 4.70034 71.6666 4.70034C71.2234 4.70034 70.8735 4.55372 70.6351 4.31527C70.3966 4.07682 70.25 3.72695 70.25 3.28376Z" fill="#0C397E" stroke="#F0FAFF" stroke-width="0.5"/>
<path d="M75.25 8.28279C75.25 7.94752 75.4202 7.59125 75.6976 7.31383C75.975 7.03641 76.3313 6.86621 76.6666 6.86621C77.1098 6.86621 77.4596 7.01283 77.6981 7.25128C77.9365 7.48973 78.0832 7.8396 78.0832 8.28279C78.0832 8.72598 77.9365 9.07585 77.6981 9.3143C77.4596 9.55274 77.1098 9.69937 76.6666 9.69937C76.2234 9.69937 75.8735 9.55274 75.6351 9.3143C75.3966 9.07585 75.25 8.72598 75.25 8.28279Z" fill="#0C397E" stroke="#F0FAFF" stroke-width="0.5"/>
<path d="M65.25 8.28279C65.25 7.94752 65.4202 7.59125 65.6976 7.31383C65.975 7.03641 66.3313 6.86621 66.6666 6.86621C67.1098 6.86621 67.4596 7.01283 67.6981 7.25128C67.9365 7.48973 68.0832 7.8396 68.0832 8.28279C68.0832 8.72598 67.9365 9.07585 67.6981 9.3143C67.4596 9.55274 67.1098 9.69937 66.6666 9.69937C66.2234 9.69937 65.8735 9.55274 65.6351 9.3143C65.3966 9.07585 65.25 8.72598 65.25 8.28279Z" fill="#0C397E" stroke="#F0FAFF" stroke-width="0.5"/>
<path d="M61.6665 11.8672H61.6666C62.1099 11.8672 62.4597 12.0138 62.6982 12.2523C62.9366 12.4907 63.0832 12.8406 63.0832 13.2838C63.0832 13.727 62.9365 14.0768 62.6981 14.3153C62.4596 14.5537 62.1098 14.7003 61.6666 14.7003C61.2234 14.7003 60.8735 14.5537 60.6351 14.3153C60.3966 14.0768 60.25 13.727 60.25 13.2838C60.25 12.9484 60.4202 12.5921 60.6976 12.3147C60.975 12.0372 61.3313 11.8671 61.6665 11.8672Z" fill="#0C397E" stroke="#F0FAFF" stroke-width="0.5"/>
<path d="M51.6665 11.8672H51.6666C52.1098 11.8672 52.4596 12.0138 52.6981 12.2523C52.9365 12.4907 53.0832 12.8406 53.0832 13.2838C53.0832 13.727 52.9365 14.0768 52.6981 14.3153C52.4596 14.5537 52.1098 14.7003 51.6666 14.7003C51.2234 14.7003 50.8735 14.5537 50.6351 14.3153C50.3966 14.0768 50.25 13.727 50.25 13.2838C50.25 12.9484 50.4202 12.5921 50.6976 12.3147C50.975 12.0372 51.3313 11.8671 51.6665 11.8672Z" fill="#0C397E" stroke="#F0FAFF" stroke-width="0.5"/>
<path d="M63.0832 3.28372V3.28376C63.0832 3.72695 62.9365 4.07682 62.6981 4.31527C62.4596 4.55372 62.1098 4.70034 61.6666 4.70034C61.2234 4.70034 60.8735 4.55372 60.6351 4.31527C60.3966 4.07682 60.25 3.72695 60.25 3.28376C60.25 2.94838 60.4202 2.59212 60.6976 2.31474C60.975 2.03735 61.3313 1.86719 61.6666 1.86719C62.1099 1.86719 62.4598 2.01382 62.6982 2.25226C62.9367 2.49069 63.0832 2.84054 63.0832 3.28372Z" fill="#0C397E" stroke="#F0FAFF" stroke-width="0.5"/>
<path d="M50.25 3.28376C50.25 2.94838 50.4202 2.59212 50.6976 2.31474C50.975 2.03735 51.3313 1.86719 51.6666 1.86719C52.1098 1.86719 52.4596 2.01381 52.6981 2.25226C52.9365 2.4907 53.0832 2.84058 53.0832 3.28376C53.0832 3.72695 52.9365 4.07682 52.6981 4.31527C52.4596 4.55372 52.1098 4.70034 51.6666 4.70034C51.2234 4.70034 50.8735 4.55372 50.6351 4.31527C50.3966 4.07682 50.25 3.72695 50.25 3.28376Z" fill="#0C397E" stroke="#F0FAFF" stroke-width="0.5"/>
<path d="M55.25 8.28279C55.25 7.9475 55.4202 7.59123 55.6976 7.31382C55.9749 7.03642 56.3312 6.86621 56.6666 6.86621C57.1098 6.86621 57.4596 7.01283 57.6981 7.25128C57.9365 7.48973 58.0832 7.8396 58.0832 8.28279C58.0832 8.72598 57.9365 9.07585 57.6981 9.3143C57.4596 9.55274 57.1098 9.69937 56.6666 9.69937C56.2234 9.69937 55.8735 9.55274 55.6351 9.3143C55.3966 9.07585 55.25 8.72598 55.25 8.28279Z" fill="#0C397E" stroke="#F0FAFF" stroke-width="0.5"/>
<path d="M51.6665 77.8333H51.1665V78.3333V98.333C51.1666 98.7196 51.04 99.0027 50.8547 99.1881C50.6694 99.3734 50.3862 99.5 49.9999 99.5H1.66658C1.28019 99.5 0.997095 99.3734 0.811847 99.1882C0.626599 99.0029 0.5 98.7198 0.5 98.3334V1.66658C0.5 1.2802 0.626599 0.997096 0.811847 0.811847C0.997096 0.626599 1.2802 0.5 1.66658 0.5H50.0001H98.3334C98.7198 0.5 99.0029 0.626599 99.1882 0.811847C99.3734 0.997095 99.5 1.28019 99.5 1.66658V66.6665V66.6665V66.6666V66.6667C99.5 69.8271 98.6079 72.6389 97.1762 74.6472C95.7452 76.6546 93.7999 77.8333 91.6667 77.8333H51.6665ZM51.6669 2.83335H51.1669V3.33335V55V55.5H51.6669H91.6665H91.6667C91.7826 55.5 91.9006 55.5047 92.022 55.5123C92.0415 55.5136 92.06 55.515 92.0795 55.5167C92.1081 55.5192 92.1388 55.5222 92.1775 55.5256C92.244 55.5317 92.3035 55.5374 92.3611 55.5446L92.3633 55.5449C92.4299 55.5529 92.4968 55.5624 92.5648 55.5732C92.6013 55.5792 92.6385 55.5859 92.6785 55.5932L92.68 55.5934C93.0586 55.6614 93.4284 55.7667 93.7876 55.9075C93.8297 55.9241 93.8454 55.9297 93.8729 55.941C93.9425 55.9695 94.0124 55.9998 94.0827 56.0316L94.0836 56.032C94.0998 56.0393 94.1162 56.0469 94.1329 56.0546C94.1612 56.0678 94.1904 56.0817 94.2215 56.0966C94.2846 56.127 94.3398 56.1537 94.3932 56.1815L94.3942 56.1821C94.4519 56.2119 94.5104 56.2445 94.5757 56.2812L94.5764 56.2816C94.5895 56.2889 94.6014 56.2955 94.6124 56.3016C94.6514 56.3231 94.6792 56.3382 94.7115 56.3572C94.7799 56.3977 94.8489 56.442 94.9253 56.4913L94.9262 56.4919C95.4143 56.8061 95.8771 57.1879 96.3062 57.6343L97.1666 58.5293V57.2877V3.33335V2.83335H96.6666H51.6669ZM86.2016 58.6267L86.7761 57.8334H85.7967H50.0098C50.0055 57.8333 50.0007 57.8332 49.9953 57.8332H43.3332C42.0938 57.8332 40.9749 58.5282 40.0964 59.5784C39.215 60.632 38.5349 62.0859 38.1597 63.7311C37.9491 64.6549 37.8333 65.6447 37.8333 66.6665C37.8333 68.5621 38.2323 70.3514 38.8995 71.8158L39.3545 71.6084L38.8995 71.8158C39.8576 73.9179 41.4525 75.4998 43.3332 75.4998H85.7965H86.7758L86.2014 74.7065C84.7444 72.6943 83.8332 69.8591 83.8332 66.6667C83.8332 63.4742 84.7444 60.6389 86.2016 58.6267ZM48.3335 97.1666H48.8335L48.8335 96.6666L48.8333 78.3333L48.8333 77.8333H48.3333H43.3332C41.2 77.8333 39.2547 76.6546 37.8237 74.6472C36.392 72.6389 35.4999 69.8271 35.4999 66.6667C35.4999 63.5063 36.3921 60.6945 37.8238 58.6861C39.2549 56.6787 41.2003 55.5 43.3334 55.5H48.3333H48.8333V55V3.33335V2.83335H48.3333H3.33335H2.83335V3.33335V96.6666V97.1666H3.33335H48.3335ZM91.6624 57.8334H91.6616C90.4235 57.8353 89.3058 58.5307 88.4281 59.5807C87.5476 60.6341 86.8681 62.087 86.4932 63.7311C86.2826 64.6549 86.1668 65.6447 86.1668 66.6665C86.1668 68.5621 86.5658 70.3514 87.233 71.8158L87.688 71.6084L87.233 71.8158C88.1911 73.9179 89.786 75.4998 91.6667 75.4998C93.2526 75.4998 94.6365 74.3689 95.595 72.7787C96.5636 71.1716 97.1666 68.9971 97.1666 66.6665C97.1669 65.1572 96.9129 63.718 96.4743 62.4561C96.016 61.1377 95.3489 59.9963 94.5366 59.1762C93.7245 58.3562 92.74 57.8334 91.6669 57.8334H91.6624Z" fill="#0C397E" stroke="#F0FAFF"/>
</g>
<defs>
<clipPath id="clip0_2041_247">
<rect width="100" height="100" fill="white"/>
</clipPath>
</defs>
</svg>
