<svg width="100" height="100" viewBox="0 0 100 100" fill="none" xmlns="http://www.w3.org/2000/svg">
<g clip-path="url(#clip0_2041_208)">
<mask id="path-1-inside-1_2041_208" fill="white">
<path d="M98.9639 37.3226C98.5571 37.3226 98.167 37.4841 97.8794 37.7718C97.5917 38.0594 97.4302 38.4495 97.4302 38.8562V90.159C96.3455 91.4326 87.7237 93.8019 71.734 93.8019C55.7443 93.8019 47.1212 91.4326 46.0378 90.159V34.0147C52.9664 37.1569 69.4199 37.2722 71.734 37.2722C77.8564 37.2741 83.9712 36.8432 90.0328 35.9827C87.412 39.6636 83.898 45.607 84.6477 50.2301C85.1311 53.2251 83.9496 56.4545 82.0147 57.4275C79.8061 58.5317 77.2234 56.3907 75.8799 55.0116C73.1647 51.9507 69.3748 50.0534 65.2974 49.7136C62.6907 49.5746 60.2259 48.483 58.3712 46.6462C56.9039 45.1654 55.9233 43.2722 55.5602 41.2194C55.5191 41.0221 55.4394 40.835 55.3259 40.6685C55.2124 40.5021 55.0673 40.3596 54.8987 40.2493C54.7301 40.1389 54.5415 40.0628 54.3435 40.0254C54.1456 39.988 53.9422 39.9899 53.7449 40.0311C53.5477 40.0722 53.3605 40.1518 53.1941 40.2653C53.0276 40.3789 52.8852 40.524 52.7748 40.6926C52.6645 40.8612 52.5884 41.0498 52.551 41.2478C52.5135 41.4457 52.5155 41.6491 52.5566 41.8463C53.0406 44.5034 54.3249 46.9491 56.2375 48.8559C58.5446 51.1509 61.6038 52.534 64.8507 52.7503C68.2603 52.9979 71.4347 54.5802 73.6848 57.1539C76.4553 60.0004 78.8565 60.8077 80.6895 60.8077C81.6289 60.8097 82.5555 60.5911 83.395 60.1697C86.5409 58.5882 88.3826 54.1061 87.6783 49.7406C86.9667 45.3235 92.2487 37.8894 94.6646 34.9913C98.089 34.0306 100.5 32.6662 100.5 30.7252C100.5 24.3622 74.6811 24.1794 71.7364 24.1794C69.5549 24.1794 54.8142 24.2837 47.32 26.9253C48.3842 23.8361 49.2921 20.6952 50.0401 17.5145C51.7996 9.78471 51.3898 5.45355 48.7985 4.2769C46.0992 3.05853 42.4023 5.85231 37.4884 12.8263C37.2541 13.1589 37.1615 13.5709 37.231 13.9718C37.3005 14.3726 37.5263 14.7294 37.8589 14.9637C38.1915 15.198 38.6035 15.2906 39.0043 15.2211C39.4052 15.1516 39.762 14.9257 39.9963 14.5932C44.7176 7.89152 47.1556 6.95044 47.5298 7.07068C49.1764 8.09887 47.5838 20.6899 38.7877 40.1053C35.9168 46.5705 32.5532 52.8054 28.7267 58.755C25.9723 58.1176 23.3755 56.9294 21.0925 55.2619C21.4606 53.9196 21.8864 52.4963 22.3784 50.9761C23.6875 51.9132 25.0846 52.7206 26.55 53.3871C26.7341 53.4748 26.9338 53.5248 27.1375 53.5344C27.3412 53.5439 27.5447 53.5128 27.7362 53.4428C27.9277 53.3727 28.1033 53.2652 28.2527 53.1265C28.4022 52.9878 28.5224 52.8207 28.6065 52.635C28.6906 52.4492 28.7369 52.2486 28.7425 52.0448C28.7481 51.841 28.7131 51.6381 28.6394 51.448C28.5657 51.2579 28.4548 51.0844 28.3133 50.9376C28.1717 50.7909 28.0024 50.6738 27.815 50.5933C26.2467 49.8818 24.7691 48.985 23.4139 47.9222C24.7378 44.1702 26.3954 39.9961 28.4653 35.4281C30.718 30.4256 33.236 25.5468 36.0087 20.8126C36.1162 20.6392 36.188 20.446 36.22 20.2445C36.2519 20.0429 36.2433 19.837 36.1947 19.6388C36.1461 19.4406 36.0583 19.2541 35.9367 19.0902C35.8151 18.9264 35.662 18.7884 35.4863 18.6845C35.3107 18.5806 35.1161 18.5127 34.9139 18.4849C34.7118 18.4572 34.5061 18.47 34.3089 18.5228C34.1118 18.5755 33.9271 18.667 33.7658 18.792C33.6045 18.917 33.4698 19.073 33.3695 19.2507C30.5409 24.0811 27.9721 29.059 25.674 34.1631C23.9808 37.9004 21.9759 42.7911 20.2459 47.7959C20.1948 47.9013 20.1565 48.0126 20.1318 48.1271C19.2987 50.5553 18.5368 53.0031 17.9061 55.3564C17.8693 55.4523 17.8425 55.5518 17.8264 55.6533C16.5933 60.3354 15.9123 64.6101 16.3123 67.545C14.6651 67.3783 13.0017 67.5914 11.4497 68.1679C9.89776 68.7443 8.49853 69.6687 7.3595 70.8702C6.22047 72.0717 5.37195 73.5182 4.87908 75.0987C4.38622 76.6792 4.26213 78.3516 4.51634 79.9875C5.74329 90.8191 1.26367 93.8914 1.23913 93.9086C0.962916 94.0759 0.746557 94.3261 0.62089 94.6236C0.495224 94.9211 0.466663 95.2506 0.539277 95.5653C0.611891 95.88 0.781976 96.1637 1.02529 96.376C1.2686 96.5883 1.57273 96.7184 1.89433 96.7478C2.7851 96.8288 3.64152 96.8705 4.47094 96.8705C19.5527 96.8705 24.6802 83.9788 25.1329 82.7531C26.0523 80.6965 26.3069 78.4042 25.8613 76.196C25.4157 73.9877 24.2921 71.9736 22.6471 70.4345C25.1219 68.8014 27.8911 65.4677 30.6039 61.4445C30.6793 61.3563 30.7439 61.2596 30.7965 61.1562C34.8858 54.8437 38.4923 48.2312 41.5852 41.3752C42.0612 40.3249 42.5226 39.2787 42.9692 38.2366V90.3222C42.9692 96.6864 68.7893 96.8693 71.7327 96.8693C74.6762 96.8693 100.496 96.6864 100.496 90.3222V38.8562C100.496 38.4497 100.335 38.0598 100.048 37.7722C99.7602 37.4846 99.3704 37.3229 98.9639 37.3226ZM22.3134 81.5396C22.2925 81.5875 22.2729 81.6366 22.2557 81.6857C22.214 81.8083 18.2276 93.2657 5.33962 93.781C6.87578 91.3099 8.39475 86.9235 7.56287 79.6244C7.56287 79.5998 7.56287 79.5777 7.55306 79.5544C7.36206 78.3572 7.45367 77.132 7.82056 75.9765C8.18745 74.821 8.81945 73.7673 9.6661 72.8996C10.5127 72.0319 11.5506 71.3741 12.6967 70.979C13.8428 70.5838 15.0654 70.4621 16.267 70.6236C17.4685 70.7851 18.6156 71.2253 19.6167 71.9091C20.6178 72.5929 21.4451 73.5013 22.0326 74.5618C22.62 75.6223 22.9514 76.8055 23.0001 78.0168C23.0489 79.2282 22.8137 80.4354 22.3134 81.5396ZM19.7269 68.4627C18.8852 67.9376 18.8987 64.3757 20.2791 58.4422C22.3213 59.7684 24.5521 60.7785 26.896 61.4384C23.3452 66.3941 20.6766 68.7547 19.7269 68.4627ZM97.2572 30.7252C96.0832 31.4241 94.7959 31.912 93.4536 32.1669L93.3665 32.1877C89.2218 33.2245 82.0036 34.2036 71.7279 34.2036C56.3982 34.2036 47.839 32.027 46.2071 30.7252C47.8427 29.4234 56.4019 27.2468 71.7279 27.2468C87.0538 27.2468 95.6216 29.4234 97.2572 30.7252Z"/>
</mask>
<path d="M98.9639 37.3226C98.5571 37.3226 98.167 37.4841 97.8794 37.7718C97.5917 38.0594 97.4302 38.4495 97.4302 38.8562V90.159C96.3455 91.4326 87.7237 93.8019 71.734 93.8019C55.7443 93.8019 47.1212 91.4326 46.0378 90.159V34.0147C52.9664 37.1569 69.4199 37.2722 71.734 37.2722C77.8564 37.2741 83.9712 36.8432 90.0328 35.9827C87.412 39.6636 83.898 45.607 84.6477 50.2301C85.1311 53.2251 83.9496 56.4545 82.0147 57.4275C79.8061 58.5317 77.2234 56.3907 75.8799 55.0116C73.1647 51.9507 69.3748 50.0534 65.2974 49.7136C62.6907 49.5746 60.2259 48.483 58.3712 46.6462C56.9039 45.1654 55.9233 43.2722 55.5602 41.2194C55.5191 41.0221 55.4394 40.835 55.3259 40.6685C55.2124 40.5021 55.0673 40.3596 54.8987 40.2493C54.7301 40.1389 54.5415 40.0628 54.3435 40.0254C54.1456 39.988 53.9422 39.9899 53.7449 40.0311C53.5477 40.0722 53.3605 40.1518 53.1941 40.2653C53.0276 40.3789 52.8852 40.524 52.7748 40.6926C52.6645 40.8612 52.5884 41.0498 52.551 41.2478C52.5135 41.4457 52.5155 41.6491 52.5566 41.8463C53.0406 44.5034 54.3249 46.9491 56.2375 48.8559C58.5446 51.1509 61.6038 52.534 64.8507 52.7503C68.2603 52.9979 71.4347 54.5802 73.6848 57.1539C76.4553 60.0004 78.8565 60.8077 80.6895 60.8077C81.6289 60.8097 82.5555 60.5911 83.395 60.1697C86.5409 58.5882 88.3826 54.1061 87.6783 49.7406C86.9667 45.3235 92.2487 37.8894 94.6646 34.9913C98.089 34.0306 100.5 32.6662 100.5 30.7252C100.5 24.3622 74.6811 24.1794 71.7364 24.1794C69.5549 24.1794 54.8142 24.2837 47.32 26.9253C48.3842 23.8361 49.2921 20.6952 50.0401 17.5145C51.7996 9.78471 51.3898 5.45355 48.7985 4.2769C46.0992 3.05853 42.4023 5.85231 37.4884 12.8263C37.2541 13.1589 37.1615 13.5709 37.231 13.9718C37.3005 14.3726 37.5263 14.7294 37.8589 14.9637C38.1915 15.198 38.6035 15.2906 39.0043 15.2211C39.4052 15.1516 39.762 14.9257 39.9963 14.5932C44.7176 7.89152 47.1556 6.95044 47.5298 7.07068C49.1764 8.09887 47.5838 20.6899 38.7877 40.1053C35.9168 46.5705 32.5532 52.8054 28.7267 58.755C25.9723 58.1176 23.3755 56.9294 21.0925 55.2619C21.4606 53.9196 21.8864 52.4963 22.3784 50.9761C23.6875 51.9132 25.0846 52.7206 26.55 53.3871C26.7341 53.4748 26.9338 53.5248 27.1375 53.5344C27.3412 53.5439 27.5447 53.5128 27.7362 53.4428C27.9277 53.3727 28.1033 53.2652 28.2527 53.1265C28.4022 52.9878 28.5224 52.8207 28.6065 52.635C28.6906 52.4492 28.7369 52.2486 28.7425 52.0448C28.7481 51.841 28.7131 51.6381 28.6394 51.448C28.5657 51.2579 28.4548 51.0844 28.3133 50.9376C28.1717 50.7909 28.0024 50.6738 27.815 50.5933C26.2467 49.8818 24.7691 48.985 23.4139 47.9222C24.7378 44.1702 26.3954 39.9961 28.4653 35.4281C30.718 30.4256 33.236 25.5468 36.0087 20.8126C36.1162 20.6392 36.188 20.446 36.22 20.2445C36.2519 20.0429 36.2433 19.837 36.1947 19.6388C36.1461 19.4406 36.0583 19.2541 35.9367 19.0902C35.8151 18.9264 35.662 18.7884 35.4863 18.6845C35.3107 18.5806 35.1161 18.5127 34.9139 18.4849C34.7118 18.4572 34.5061 18.47 34.3089 18.5228C34.1118 18.5755 33.9271 18.667 33.7658 18.792C33.6045 18.917 33.4698 19.073 33.3695 19.2507C30.5409 24.0811 27.9721 29.059 25.674 34.1631C23.9808 37.9004 21.9759 42.7911 20.2459 47.7959C20.1948 47.9013 20.1565 48.0126 20.1318 48.1271C19.2987 50.5553 18.5368 53.0031 17.9061 55.3564C17.8693 55.4523 17.8425 55.5518 17.8264 55.6533C16.5933 60.3354 15.9123 64.6101 16.3123 67.545C14.6651 67.3783 13.0017 67.5914 11.4497 68.1679C9.89776 68.7443 8.49853 69.6687 7.3595 70.8702C6.22047 72.0717 5.37195 73.5182 4.87908 75.0987C4.38622 76.6792 4.26213 78.3516 4.51634 79.9875C5.74329 90.8191 1.26367 93.8914 1.23913 93.9086C0.962916 94.0759 0.746557 94.3261 0.62089 94.6236C0.495224 94.9211 0.466663 95.2506 0.539277 95.5653C0.611891 95.88 0.781976 96.1637 1.02529 96.376C1.2686 96.5883 1.57273 96.7184 1.89433 96.7478C2.7851 96.8288 3.64152 96.8705 4.47094 96.8705C19.5527 96.8705 24.6802 83.9788 25.1329 82.7531C26.0523 80.6965 26.3069 78.4042 25.8613 76.196C25.4157 73.9877 24.2921 71.9736 22.6471 70.4345C25.1219 68.8014 27.8911 65.4677 30.6039 61.4445C30.6793 61.3563 30.7439 61.2596 30.7965 61.1562C34.8858 54.8437 38.4923 48.2312 41.5852 41.3752C42.0612 40.3249 42.5226 39.2787 42.9692 38.2366V90.3222C42.9692 96.6864 68.7893 96.8693 71.7327 96.8693C74.6762 96.8693 100.496 96.6864 100.496 90.3222V38.8562C100.496 38.4497 100.335 38.0598 100.048 37.7722C99.7602 37.4846 99.3704 37.3229 98.9639 37.3226ZM22.3134 81.5396C22.2925 81.5875 22.2729 81.6366 22.2557 81.6857C22.214 81.8083 18.2276 93.2657 5.33962 93.781C6.87578 91.3099 8.39475 86.9235 7.56287 79.6244C7.56287 79.5998 7.56287 79.5777 7.55306 79.5544C7.36206 78.3572 7.45367 77.132 7.82056 75.9765C8.18745 74.821 8.81945 73.7673 9.6661 72.8996C10.5127 72.0319 11.5506 71.3741 12.6967 70.979C13.8428 70.5838 15.0654 70.4621 16.267 70.6236C17.4685 70.7851 18.6156 71.2253 19.6167 71.9091C20.6178 72.5929 21.4451 73.5013 22.0326 74.5618C22.62 75.6223 22.9514 76.8055 23.0001 78.0168C23.0489 79.2282 22.8137 80.4354 22.3134 81.5396ZM19.7269 68.4627C18.8852 67.9376 18.8987 64.3757 20.2791 58.4422C22.3213 59.7684 24.5521 60.7785 26.896 61.4384C23.3452 66.3941 20.6766 68.7547 19.7269 68.4627ZM97.2572 30.7252C96.0832 31.4241 94.7959 31.912 93.4536 32.1669L93.3665 32.1877C89.2218 33.2245 82.0036 34.2036 71.7279 34.2036C56.3982 34.2036 47.839 32.027 46.2071 30.7252C47.8427 29.4234 56.4019 27.2468 71.7279 27.2468C87.0538 27.2468 95.6216 29.4234 97.2572 30.7252Z" fill="#0C397E" stroke="#F0FAFF" stroke-width="1.6" mask="url(#path-1-inside-1_2041_208)"/>
</g>
<defs>
<clipPath id="clip0_2041_208">
<rect width="100" height="100" fill="white"/>
</clipPath>
</defs>
</svg>
