<svg width="60" height="60" viewBox="0 0 60 60" fill="none" xmlns="http://www.w3.org/2000/svg">
<path d="M51.4945 57.4077C52.8305 51.6293 51.2895 47.4439 49.7607 44.9526C48.01 42.0986 45.8554 40.6983 45.7651 40.6402C44.3894 39.7587 42.1566 38.7656 39.1282 37.6882C37.526 37.119 36.1058 36.6706 35.3131 36.4273V34.3093C38.5176 32.0567 39.3623 28.7804 39.575 27.5087C40.8926 26.7619 41.7052 25.7871 41.9914 24.6072C42.351 23.1213 41.7373 21.7593 41.3639 21.112C41.4252 20.8702 41.4818 20.633 41.5338 20.3989C42.3158 20.3805 43.0549 20.0837 43.6196 19.5557C44.2195 18.9941 44.5516 18.2458 44.5516 17.4469C44.5516 15.9901 43.4406 14.7796 41.9837 14.5379V10.3555C41.9837 4.64599 37.0454 0 30.9747 0H29.5347C23.464 0 18.5257 4.64599 18.5257 10.3555V14.5379C17.9136 14.6389 17.3459 14.9128 16.8899 15.3382C16.29 15.8998 15.9594 16.6481 15.9594 17.4469C15.9594 18.9818 17.1929 20.2459 18.7629 20.3882C18.8242 20.7952 18.8884 21.1227 18.9343 21.34C18.2273 23.1779 18.2319 24.6837 18.9481 25.8177C19.5618 26.7894 20.5457 27.2164 21.2451 27.4031C21.5527 30.3963 23.1197 32.4347 24.8061 33.786V36.7165C24.3914 36.8435 23.8068 37.0271 23.1182 37.2521C23.1105 37.2536 23.1044 37.2567 23.0983 37.2582C22.4234 37.4801 21.6491 37.7403 20.8396 38.031C18.0361 39.0334 15.9212 39.9668 14.5531 40.8039L14.5164 40.8253C12.7259 41.8629 11.5292 43.4743 10.8406 44.6419C8.95831 47.8356 8.20541 52.0776 8.60328 57.2531C8.72265 58.7941 10.0356 60 11.592 60H48.5319C49.9474 60 51.138 58.9579 51.4961 57.4077H51.4945ZM37.6637 39.1206C37.9391 39.2155 38.2238 39.3149 38.513 39.4175C39.168 39.6501 39.7862 39.8796 40.3662 40.1061V49.0262H37.6637V39.1206ZM20.3621 10.3555C20.3621 5.65752 24.4771 1.83636 29.5347 1.83636H30.9747C36.0324 1.83636 40.1474 5.65752 40.1474 10.3555V14.4919H20.3621V10.3555ZM19.5648 18.5656H19.0552C18.3727 18.5656 17.7958 18.0529 17.7958 17.4469C17.7958 17.1608 17.9198 16.8884 18.1432 16.6803C18.3865 16.4538 18.7109 16.3283 19.0552 16.3283H41.4542C42.1367 16.3283 42.7137 16.841 42.7137 17.4469C42.7137 17.7301 42.5897 18.0024 42.3648 18.2136C42.123 18.4401 41.7985 18.5656 41.4542 18.5656H19.5648ZM23.031 26.6012C23.0172 26.1237 22.6377 25.7366 22.1602 25.7121C22.148 25.7121 20.9941 25.6188 20.5014 24.8383C19.9857 24.0211 20.3468 22.7188 20.7416 21.7685C20.8181 21.5864 20.8319 21.3829 20.7845 21.1901C20.7845 21.1855 20.7095 20.8886 20.6269 20.402H39.6485C39.598 20.607 39.5459 20.8151 39.4893 21.0263C39.4174 21.2941 39.474 21.5849 39.6378 21.8098C39.6469 21.8221 40.4978 23.0065 40.2055 24.1833C40.0203 24.9301 39.3883 25.5728 38.3263 26.0916C38.0325 26.2355 37.8366 26.5247 37.8137 26.8522C37.8106 26.8904 37.4969 30.7713 33.9068 33.0422C33.8946 33.0499 33.8838 33.0575 33.8716 33.0652C33.2702 33.4416 32.6014 33.7584 31.8822 34.0063C30.7804 34.3843 29.5806 34.3338 28.5033 33.8655C27.7963 33.5579 27.0465 33.1585 26.3364 32.6474C26.292 32.6092 26.2461 32.574 26.1956 32.5449C24.5337 31.3023 23.1212 29.42 23.0355 26.5997L23.031 26.6012ZM33.4768 35.3453V36.8695C32.7055 38.2147 31.5348 39.7205 30.1606 39.7373C30.153 39.7373 30.1438 39.7373 30.1361 39.7373C28.638 39.7373 27.2133 38.0172 26.644 37.1389V35.0026C27.0419 35.2199 27.4229 35.402 27.7688 35.5519C28.6012 35.9146 29.4873 36.0967 30.3749 36.0967C31.0849 36.0967 31.7935 35.9804 32.4775 35.7463C32.8218 35.6284 33.1539 35.4922 33.4798 35.3469L33.4768 35.3453ZM24.3026 38.7992C24.7112 38.6692 25.0617 38.559 25.3371 38.4748C26.0946 39.5322 27.8529 41.5737 30.1361 41.5737H30.1775C31.8899 41.5553 33.4492 40.4183 34.8219 38.1978C35.0928 38.2805 35.434 38.3876 35.8273 38.5131V49.0277H24.3026V38.7992ZM19.7638 40.3923C20.2978 40.1841 20.861 39.9745 21.4578 39.7603C21.8021 39.6363 22.1403 39.5185 22.4663 39.4068V49.0262H19.7638V40.3907V40.3923ZM15.9181 52.0623V58.1652H11.5904C10.9875 58.1652 10.4794 57.703 10.4335 57.1139C9.62859 46.6328 14.0603 43.2141 15.4376 42.4153C15.4697 42.397 15.4942 42.3817 15.5126 42.3709C16.1278 41.9945 16.9419 41.5828 17.9289 41.1482V49.2022C16.7598 49.62 15.9196 50.7417 15.9196 52.0608L15.9181 52.0623ZM42.755 58.1652H17.7529V52.0623C17.7529 51.4012 18.2794 50.8641 18.9282 50.8641H41.5797C42.227 50.8641 42.755 51.4012 42.755 52.0623V58.1652ZM42.2026 49.0936V40.8651C43.2768 41.338 44.1445 41.7833 44.775 42.1873C44.7934 42.1996 46.6634 43.4161 48.1967 45.9136C50.1586 49.1134 50.6666 52.8428 49.7071 56.996C49.5832 57.5362 49.2006 58.1652 48.5319 58.1652H44.5929V52.0623C44.5929 50.604 43.566 49.3828 42.2041 49.0936H42.2026Z" fill="#002967"/>
</svg>
