<svg width="60" height="60" viewBox="0 0 60 60" fill="none" xmlns="http://www.w3.org/2000/svg">
<path d="M44.6133 25.6289C44.6133 17.5664 38.0508 11.0156 30 11.0156C21.9492 11.0156 15.3867 17.5664 15.3867 25.6289C15.3867 33.6797 21.9375 40.2422 30 40.2422C38.0625 40.2422 44.6133 33.6797 44.6133 25.6289ZM30 38.3555C22.9805 38.3555 17.2617 32.6484 17.2617 25.6172C17.2617 18.5859 22.9805 12.8906 30 12.8906C37.0195 12.8906 42.7383 18.5977 42.7383 25.6289C42.7383 32.6602 37.0195 38.3555 30 38.3555Z" fill="#002967"/>
<path d="M47.9062 40.7453C48.4336 40.4758 48.9023 40.1242 49.2656 39.632C50.2148 38.3312 49.9922 36.632 49.7812 34.9797C49.6406 33.9133 49.5 32.8 49.7461 32.05C49.9688 31.3469 50.7187 30.5617 51.4336 29.8117C52.5469 28.6398 53.8008 27.3156 53.8008 25.6398C53.8008 23.964 52.5586 22.6164 51.4453 21.4445C50.7305 20.6828 49.9805 19.9094 49.7578 19.2062C49.5117 18.4562 49.6523 17.343 49.793 16.2765C50.0039 14.6242 50.2148 12.925 49.2773 11.6242C48.3281 10.3117 46.6289 9.9953 44.9883 9.67889C43.9336 9.47967 42.8437 9.28045 42.2227 8.82342C41.6016 8.37811 41.0859 7.41717 40.582 6.47967C39.8203 5.07342 38.9414 3.47967 37.3828 2.96405C35.8828 2.47186 34.3477 3.19842 32.8594 3.90155C31.8633 4.3703 30.8438 4.85077 30.0234 4.85077C29.2031 4.85077 28.1836 4.3703 27.1875 3.90155C25.6992 3.19842 24.1641 2.47186 22.6641 2.96405C21.0938 3.46795 20.2734 5.00311 19.4648 6.47967C18.9609 7.40545 18.4336 8.37811 17.8242 8.82342C17.1914 9.28045 16.1133 9.49139 15.0586 9.67889C13.418 9.98358 11.7188 10.3117 10.7695 11.6242C9.82031 12.925 10.043 14.6242 10.2539 16.2765C10.3945 17.343 10.5352 18.4562 10.2891 19.2062C10.0664 19.9094 9.31641 20.6945 8.60156 21.4445C7.48828 22.6164 6.23438 23.9406 6.23438 25.6164C6.23438 27.2922 7.5 28.6164 8.60156 29.7883C9.31641 30.55 10.0664 31.3234 10.2891 32.0265C10.5352 32.7765 10.3945 33.8898 10.2539 34.9562C10.043 36.6086 9.83203 38.3078 10.7695 39.6086C11.1328 40.1008 11.6016 40.464 12.1289 40.7219L7.01953 49.5695C6.83203 49.8976 6.85547 50.3078 7.08984 50.6125C7.32422 50.9172 7.71094 51.0461 8.07422 50.9523L15.6211 48.925L17.6484 56.4719C17.7422 56.8351 18.0586 57.1047 18.4336 57.1633C18.4805 57.1633 18.5156 57.175 18.5508 57.175C18.8789 57.175 19.1953 56.9992 19.3594 56.7062L24.1523 48.3976C25.1719 48.2805 26.2031 47.8 27.1992 47.3312C28.1953 46.8625 29.2148 46.382 30.0352 46.382C30.8555 46.382 31.875 46.8625 32.8711 47.3312C33.8672 47.8 34.8984 48.2922 35.918 48.3976L40.7109 56.7062C40.875 56.9992 41.1914 57.175 41.5195 57.175C41.5547 57.175 41.6016 57.175 41.6367 57.1633C42.0117 57.1164 42.3164 56.8469 42.4219 56.4719L44.4492 48.925L51.9961 50.9523C52.3594 51.0461 52.7461 50.9172 52.9805 50.6125C53.2148 50.3078 53.2383 49.8976 53.0508 49.5695L47.9062 40.7453ZM18.832 53.8234L17.1562 47.5539C17.0273 47.05 16.5117 46.757 16.0078 46.8859L9.73828 48.5617L13.9102 41.3312C14.2734 41.4133 14.6484 41.4836 15.0234 41.5539C16.0781 41.7531 17.168 41.9523 17.7891 42.4094C18.4102 42.8547 18.9258 43.8156 19.4297 44.7531C20.1094 46.007 20.8711 47.4015 22.1367 48.0578L18.832 53.8234ZM30 44.5187C28.7578 44.5187 27.5391 45.093 26.3672 45.6437C25.207 46.1945 24.0117 46.757 23.2266 46.4992C22.3711 46.218 21.7266 45.0226 21.0938 43.8742C20.4844 42.7609 19.8633 41.6125 18.9023 40.9094C17.9297 40.2062 16.6289 39.9601 15.375 39.7258C14.0977 39.4797 12.7734 39.2336 12.2461 38.5305C11.7422 37.839 11.9062 36.5031 12.0703 35.2258C12.2344 33.9484 12.3984 32.6359 12.0234 31.4758C11.6602 30.3742 10.7695 29.425 9.91406 28.5226C9 27.5617 8.05078 26.5656 8.05078 25.6398C8.05078 24.714 9 23.718 9.91406 22.757C10.7812 21.843 11.6719 20.9055 12.0234 19.8039C12.3984 18.6437 12.2344 17.3312 12.0703 16.0539C11.9062 14.7648 11.7422 13.4406 12.2461 12.7492C12.7617 12.0344 14.0859 11.7883 15.375 11.5539C16.6289 11.3195 17.9297 11.0734 18.9023 10.3703C19.8633 9.67889 20.4844 8.51874 21.0938 7.40545C21.7266 6.2453 22.3711 5.0617 23.2266 4.78045C24.0234 4.52264 25.2188 5.08514 26.3672 5.63592C27.5391 6.1867 28.7578 6.76092 30 6.76092C31.2422 6.76092 32.4609 6.1867 33.6328 5.63592C34.793 5.08514 35.9883 4.52264 36.7734 4.78045C37.6289 5.0617 38.2734 6.25702 38.9062 7.40545C39.5156 8.51874 40.1367 9.66717 41.0977 10.3703C42.0703 11.0734 43.3711 11.3195 44.625 11.5539C45.9023 11.8 47.2266 12.0461 47.7539 12.7492C48.2578 13.4406 48.0938 14.7765 47.9297 16.0539C47.7656 17.3312 47.6016 18.6437 47.9766 19.8039C48.3398 20.9055 49.2305 21.8547 50.0859 22.757C51 23.718 51.9492 24.714 51.9492 25.6398C51.9492 26.5656 51 27.5617 50.0859 28.5226C49.2187 29.4367 48.3281 30.3742 47.9766 31.4758C47.6016 32.6359 47.7656 33.9484 47.9297 35.2258C48.0938 36.5148 48.2578 37.839 47.7539 38.5305C47.2383 39.2453 45.9141 39.4914 44.625 39.7258C43.3711 39.9601 42.0703 40.2062 41.0977 40.9094C40.1367 41.6008 39.5156 42.7609 38.9062 43.8742C38.2734 45.0344 37.6289 46.218 36.7734 46.4992C35.9766 46.757 34.7812 46.1945 33.6328 45.6437C32.4609 45.093 31.2422 44.5187 30 44.5187ZM43.9922 46.8859C43.4883 46.757 42.9727 47.05 42.8438 47.5539L41.168 53.8234L37.8516 48.0812C39.1055 47.4367 39.8438 46.089 40.5586 44.7765C41.0625 43.8508 41.5898 42.8781 42.1992 42.4328C42.832 41.9758 43.9102 41.7648 44.9648 41.5773C45.3398 41.507 45.7148 41.4367 46.0781 41.3547L50.25 48.5851L43.9922 46.8859Z" fill="#002967"/>
<path d="M38.792 19.8857C38.4287 19.5225 37.8311 19.5225 37.4678 19.8857L27.9756 29.3779L22.5498 23.9521C22.1865 23.5889 21.5889 23.5889 21.2256 23.9521C20.8623 24.3154 20.8623 24.9131 21.2256 25.2764L27.3193 31.3701C27.4951 31.5459 27.7295 31.6396 27.9873 31.6396C28.2451 31.6396 28.4795 31.5459 28.6553 31.3701L38.792 21.21C39.1553 20.8467 39.1553 20.249 38.792 19.8857Z" fill="#002967"/>
</svg>
