<svg width="80" height="80" viewBox="0 0 80 80" fill="none" xmlns="http://www.w3.org/2000/svg">
<g clip-path="url(#clip0_2041_150)">
<mask id="path-1-inside-1_2041_150" fill="white">
<path d="M79.7879 67.5906L67.7113 50.3406L67.8098 49.9844C68.1988 48.5781 68.566 47.25 69.0738 46.0266C69.5535 44.8688 70.2176 43.7141 70.9207 42.4906C72.427 39.8719 73.9848 37.1641 73.9848 33.9844C73.9848 30.8047 72.4223 28.0969 70.9207 25.4781C70.2176 24.2547 69.5535 23.1 69.0738 21.9422C68.566 20.7187 68.1988 19.3906 67.8098 17.9828C67.0098 15.0937 66.1832 12.1062 64.0317 9.95469C61.8801 7.80312 58.891 6.975 56.0004 6.175C54.5942 5.78594 53.266 5.41875 52.0426 4.91094C50.8848 4.43125 49.7301 3.76719 48.5067 3.06406C45.8879 1.5625 43.1801 0 40.0004 0C36.8207 0 34.1129 1.5625 31.4942 3.06406C30.2707 3.76719 29.116 4.43125 27.9582 4.91094C26.7348 5.41875 25.4067 5.78594 23.9988 6.175C21.1098 6.975 18.1254 7.80156 15.9707 9.95312C13.816 12.1047 12.991 15.0938 12.1879 17.9844C11.7988 19.3906 11.4317 20.7187 10.9238 21.9422C10.4442 23.1 9.78009 24.2547 9.07697 25.4781C7.57384 28.0969 6.01603 30.8047 6.01603 33.9844C6.01603 37.1641 7.57853 39.8719 9.08009 42.4906C9.78322 43.7141 10.4473 44.8688 10.927 46.0266C11.4348 47.25 11.802 48.5781 12.191 49.9859L12.2895 50.3406L0.212907 67.5906C0.0857543 67.7715 0.0124377 67.9847 0.00144718 68.2055C-0.00954334 68.4263 0.0422419 68.6457 0.150806 68.8383C0.25937 69.0309 0.420271 69.1889 0.614877 69.2938C0.809483 69.3987 1.02983 69.4464 1.25041 69.4312L12.0863 68.7391L15.141 79.1578C15.2034 79.37 15.3245 79.5602 15.4904 79.7065C15.6563 79.8528 15.8602 79.9491 16.0785 79.9844C16.1415 79.995 16.2053 80.0002 16.2692 80C16.4575 80 16.6431 79.9546 16.8101 79.8675C16.9771 79.7805 17.1207 79.6544 17.2285 79.5L28.5582 63.3203C29.5192 63.7672 30.4863 64.3219 31.5004 64.9047C34.1129 66.4062 36.8207 67.9688 40.0004 67.9688C43.1801 67.9688 45.8879 66.4062 48.5067 64.9047C49.5207 64.3219 50.4879 63.7672 51.4488 63.3203L62.7785 79.5C62.8864 79.6544 63.03 79.7805 63.197 79.8675C63.364 79.9546 63.5496 80 63.7379 80C63.8018 80.0002 63.8656 79.995 63.9285 79.9844C64.1469 79.9491 64.3508 79.8528 64.5167 79.7065C64.6826 79.5602 64.8037 79.37 64.866 79.1578L67.9207 68.7391L78.7504 69.4312C78.9707 69.4457 79.1906 69.3976 79.3848 69.2924C79.5789 69.1872 79.7393 69.0293 79.8475 68.8368C79.9556 68.6443 80.0071 68.4252 79.996 68.2047C79.985 67.9842 79.9117 67.7713 79.7848 67.5906H79.7879ZM16.7004 76.1594L14.0629 67.1875C13.9885 66.932 13.8292 66.7095 13.6113 66.5567C13.3935 66.4039 13.13 66.3299 12.8645 66.3469L3.53009 66.9375L13.1567 53.1875C13.7817 54.9719 14.6145 56.6578 15.9692 58.0125C18.1223 60.1656 21.1098 60.9922 24.0004 61.7922C24.791 62.0109 25.5629 62.2234 26.2926 62.4578L16.7004 76.1594ZM47.3379 62.8781C44.8785 64.2891 42.5535 65.625 40.0004 65.625C37.4473 65.625 35.1223 64.2891 32.6567 62.8734C31.4223 62.1641 30.1473 61.4312 28.8504 60.8922C27.4926 60.3297 26.0379 59.925 24.6192 59.5344C21.902 58.7828 19.3363 58.0734 17.6207 56.3578C15.9051 54.6422 15.1957 52.0766 14.4442 49.3594C14.0535 47.9531 13.6488 46.4859 13.0863 45.1281C12.5473 43.8312 11.8145 42.5562 11.1051 41.3219C9.68947 38.8625 8.35353 36.5375 8.35353 33.9781C8.35353 31.4188 9.68947 29.1 11.1051 26.6344C11.8145 25.4 12.5473 24.125 13.0863 22.8281C13.6488 21.4703 14.0535 20.0156 14.4442 18.5969C15.1957 15.8797 15.9051 13.3141 17.6207 11.5984C19.3363 9.88281 21.9082 9.18594 24.6254 8.4375C26.0317 8.04688 27.4988 7.64219 28.8567 7.07969C30.1535 6.54063 31.4285 5.80781 32.6629 5.09844C35.1223 3.67969 37.4473 2.34375 40.0004 2.34375C42.5535 2.34375 44.8785 3.67969 47.3442 5.09531C48.5785 5.80469 49.8535 6.5375 51.1504 7.07656C52.5082 7.63906 53.9629 8.04375 55.3817 8.43437C58.0988 9.18594 60.6645 9.89531 62.3801 11.6109C64.0957 13.3266 64.8051 15.8922 65.5567 18.6094C65.9473 20.0156 66.352 21.4828 66.9145 22.8406C67.4535 24.1375 68.1863 25.4125 68.8957 26.6469C70.3113 29.1062 71.6473 31.4312 71.6473 33.9906C71.6473 36.55 70.3113 38.8688 68.8957 41.3344C68.1863 42.5688 67.4535 43.8438 66.9145 45.1406C66.352 46.4984 65.9473 47.9531 65.5567 49.3719C64.8051 52.0891 64.0957 54.6547 62.3801 56.3703C60.6645 58.0859 58.0926 58.7828 55.3754 59.5312C53.9692 59.9219 52.502 60.3266 51.1442 60.8891C49.8442 61.4313 48.5723 62.1641 47.3442 62.8734L47.3379 62.8781ZM67.1317 66.3438C66.8666 66.3289 66.6044 66.4042 66.3876 66.5574C66.1708 66.7106 66.0123 66.9327 65.9379 67.1875L63.3067 76.1672L53.7145 62.4672C54.4504 62.2328 55.216 62.0203 56.0082 61.8016C58.8973 61.0016 61.8848 60.175 64.0363 58.0234C65.3926 56.6672 66.2238 54.9812 66.8488 53.1969L76.4754 66.9469L67.1317 66.3438Z"/>
</mask>
<path d="M79.7879 67.5906L67.7113 50.3406L67.8098 49.9844C68.1988 48.5781 68.566 47.25 69.0738 46.0266C69.5535 44.8688 70.2176 43.7141 70.9207 42.4906C72.427 39.8719 73.9848 37.1641 73.9848 33.9844C73.9848 30.8047 72.4223 28.0969 70.9207 25.4781C70.2176 24.2547 69.5535 23.1 69.0738 21.9422C68.566 20.7187 68.1988 19.3906 67.8098 17.9828C67.0098 15.0937 66.1832 12.1062 64.0317 9.95469C61.8801 7.80312 58.891 6.975 56.0004 6.175C54.5942 5.78594 53.266 5.41875 52.0426 4.91094C50.8848 4.43125 49.7301 3.76719 48.5067 3.06406C45.8879 1.5625 43.1801 0 40.0004 0C36.8207 0 34.1129 1.5625 31.4942 3.06406C30.2707 3.76719 29.116 4.43125 27.9582 4.91094C26.7348 5.41875 25.4067 5.78594 23.9988 6.175C21.1098 6.975 18.1254 7.80156 15.9707 9.95312C13.816 12.1047 12.991 15.0938 12.1879 17.9844C11.7988 19.3906 11.4317 20.7187 10.9238 21.9422C10.4442 23.1 9.78009 24.2547 9.07697 25.4781C7.57384 28.0969 6.01603 30.8047 6.01603 33.9844C6.01603 37.1641 7.57853 39.8719 9.08009 42.4906C9.78322 43.7141 10.4473 44.8688 10.927 46.0266C11.4348 47.25 11.802 48.5781 12.191 49.9859L12.2895 50.3406L0.212907 67.5906C0.0857543 67.7715 0.0124377 67.9847 0.00144718 68.2055C-0.00954334 68.4263 0.0422419 68.6457 0.150806 68.8383C0.25937 69.0309 0.420271 69.1889 0.614877 69.2938C0.809483 69.3987 1.02983 69.4464 1.25041 69.4312L12.0863 68.7391L15.141 79.1578C15.2034 79.37 15.3245 79.5602 15.4904 79.7065C15.6563 79.8528 15.8602 79.9491 16.0785 79.9844C16.1415 79.995 16.2053 80.0002 16.2692 80C16.4575 80 16.6431 79.9546 16.8101 79.8675C16.9771 79.7805 17.1207 79.6544 17.2285 79.5L28.5582 63.3203C29.5192 63.7672 30.4863 64.3219 31.5004 64.9047C34.1129 66.4062 36.8207 67.9688 40.0004 67.9688C43.1801 67.9688 45.8879 66.4062 48.5067 64.9047C49.5207 64.3219 50.4879 63.7672 51.4488 63.3203L62.7785 79.5C62.8864 79.6544 63.03 79.7805 63.197 79.8675C63.364 79.9546 63.5496 80 63.7379 80C63.8018 80.0002 63.8656 79.995 63.9285 79.9844C64.1469 79.9491 64.3508 79.8528 64.5167 79.7065C64.6826 79.5602 64.8037 79.37 64.866 79.1578L67.9207 68.7391L78.7504 69.4312C78.9707 69.4457 79.1906 69.3976 79.3848 69.2924C79.5789 69.1872 79.7393 69.0293 79.8475 68.8368C79.9556 68.6443 80.0071 68.4252 79.996 68.2047C79.985 67.9842 79.9117 67.7713 79.7848 67.5906H79.7879ZM16.7004 76.1594L14.0629 67.1875C13.9885 66.932 13.8292 66.7095 13.6113 66.5567C13.3935 66.4039 13.13 66.3299 12.8645 66.3469L3.53009 66.9375L13.1567 53.1875C13.7817 54.9719 14.6145 56.6578 15.9692 58.0125C18.1223 60.1656 21.1098 60.9922 24.0004 61.7922C24.791 62.0109 25.5629 62.2234 26.2926 62.4578L16.7004 76.1594ZM47.3379 62.8781C44.8785 64.2891 42.5535 65.625 40.0004 65.625C37.4473 65.625 35.1223 64.2891 32.6567 62.8734C31.4223 62.1641 30.1473 61.4312 28.8504 60.8922C27.4926 60.3297 26.0379 59.925 24.6192 59.5344C21.902 58.7828 19.3363 58.0734 17.6207 56.3578C15.9051 54.6422 15.1957 52.0766 14.4442 49.3594C14.0535 47.9531 13.6488 46.4859 13.0863 45.1281C12.5473 43.8312 11.8145 42.5562 11.1051 41.3219C9.68947 38.8625 8.35353 36.5375 8.35353 33.9781C8.35353 31.4188 9.68947 29.1 11.1051 26.6344C11.8145 25.4 12.5473 24.125 13.0863 22.8281C13.6488 21.4703 14.0535 20.0156 14.4442 18.5969C15.1957 15.8797 15.9051 13.3141 17.6207 11.5984C19.3363 9.88281 21.9082 9.18594 24.6254 8.4375C26.0317 8.04688 27.4988 7.64219 28.8567 7.07969C30.1535 6.54063 31.4285 5.80781 32.6629 5.09844C35.1223 3.67969 37.4473 2.34375 40.0004 2.34375C42.5535 2.34375 44.8785 3.67969 47.3442 5.09531C48.5785 5.80469 49.8535 6.5375 51.1504 7.07656C52.5082 7.63906 53.9629 8.04375 55.3817 8.43437C58.0988 9.18594 60.6645 9.89531 62.3801 11.6109C64.0957 13.3266 64.8051 15.8922 65.5567 18.6094C65.9473 20.0156 66.352 21.4828 66.9145 22.8406C67.4535 24.1375 68.1863 25.4125 68.8957 26.6469C70.3113 29.1062 71.6473 31.4312 71.6473 33.9906C71.6473 36.55 70.3113 38.8688 68.8957 41.3344C68.1863 42.5688 67.4535 43.8438 66.9145 45.1406C66.352 46.4984 65.9473 47.9531 65.5567 49.3719C64.8051 52.0891 64.0957 54.6547 62.3801 56.3703C60.6645 58.0859 58.0926 58.7828 55.3754 59.5312C53.9692 59.9219 52.502 60.3266 51.1442 60.8891C49.8442 61.4313 48.5723 62.1641 47.3442 62.8734L47.3379 62.8781ZM67.1317 66.3438C66.8666 66.3289 66.6044 66.4042 66.3876 66.5574C66.1708 66.7106 66.0123 66.9327 65.9379 67.1875L63.3067 76.1672L53.7145 62.4672C54.4504 62.2328 55.216 62.0203 56.0082 61.8016C58.8973 61.0016 61.8848 60.175 64.0363 58.0234C65.3926 56.6672 66.2238 54.9812 66.8488 53.1969L76.4754 66.9469L67.1317 66.3438Z" fill="#0C397E" stroke="white" stroke-width="0.6" mask="url(#path-1-inside-1_2041_150)"/>
<path d="M40 7.9625C54.3484 7.9625 66.0219 19.636 66.0219 33.9844C66.0219 48.3328 54.3484 60.0062 40 60.0062C25.6516 60.0062 13.9781 48.3328 13.9781 33.9844C13.9781 19.636 25.6516 7.9625 40 7.9625ZM16.0219 33.9844C16.0219 47.2063 26.7781 57.9625 40 57.9625C53.2219 57.9625 63.9781 47.2063 63.9781 33.9844C63.9781 20.7625 53.2219 10.0062 40 10.0062C26.7781 10.0062 16.0219 20.7625 16.0219 33.9844Z" fill="#0C397E" stroke="white" stroke-width="0.3"/>
<path d="M26.1847 27.7577L26.492 27.8465L33.8934 29.9855L26.1847 27.7577ZM26.1847 27.7577L26.3129 28.0507M26.1847 27.7577L26.3129 28.0507M26.3129 28.0507L30.166 36.8585C30.166 36.8585 30.166 36.8585 30.1661 36.8585C30.269 37.094 30.4384 37.2943 30.6535 37.4348C30.8686 37.5754 31.1201 37.6502 31.3771 37.65M26.3129 28.0507L31.3769 37.5M40.0004 21.1502L40.1295 21.369L44.9435 29.5235C45.059 29.7185 45.2359 29.8696 45.4465 29.9533C45.6571 30.0369 45.8895 30.0482 46.1073 29.9855L53.5087 27.8465L53.816 27.7577L53.6878 28.0507L49.8347 36.8585C49.7317 37.0939 49.5623 37.2943 49.3472 37.4348C49.1321 37.5754 48.8806 37.6502 48.6237 37.65M40.0004 21.1502L48.6238 37.5M40.0004 21.1502L39.8712 21.369M40.0004 21.1502L39.8712 21.369M48.6237 37.65L48.6238 37.5M48.6237 37.65H48.6238V37.5M48.6237 37.65H31.3771M48.6238 37.5H31.3769M31.3771 37.65L31.3769 37.5M31.3771 37.65H31.3769V37.5M39.8712 21.369L35.0572 29.5235L39.8712 21.369ZM46.4123 27.7706L55.1504 25.2448V25.2457L55.3416 25.191C55.5282 25.1377 55.7261 25.1385 55.9122 25.1933C56.0984 25.2482 56.2651 25.3548 56.3929 25.5008C56.5208 25.6468 56.6045 25.8261 56.6343 26.0178C56.6641 26.2096 56.6388 26.4059 56.5613 26.5838L51.7067 37.6773L51.7067 37.6774C51.4445 38.2768 51.0133 38.7869 50.4658 39.145C49.9182 39.5031 49.2781 39.6938 48.6238 39.6937H31.3769H31.3766C30.7209 39.6951 30.079 39.5049 29.53 39.1464C28.981 38.7879 28.5487 38.2768 28.2863 37.6759L28.2862 37.6758L23.4315 26.582L23.4315 26.5819C23.3532 26.4034 23.3275 26.2062 23.3575 26.0135C23.3875 25.8209 23.4718 25.6408 23.6007 25.4945C23.7295 25.3482 23.8975 25.2417 24.0848 25.1876C24.2721 25.1335 24.471 25.1341 24.658 25.1892L24.6587 25.1894L33.5884 27.7706L33.7001 27.8029L33.7592 27.7028L39.1201 18.6215L39.1202 18.6215C39.2105 18.4684 39.3392 18.3415 39.4935 18.2533C39.6479 18.1651 39.8226 18.1188 40.0004 18.1188C40.1781 18.1188 40.3528 18.1651 40.5072 18.2533C40.6615 18.3414 40.7902 18.4684 40.8805 18.6215L40.8806 18.6215L46.2415 27.7028L46.3006 27.8029L46.4123 27.7706ZM34.5542 29.9533C34.3436 30.0368 34.1113 30.0482 33.8936 29.9855L35.0571 29.5237C34.9416 29.7186 34.7648 29.8697 34.5542 29.9533Z" fill="#0C397E" stroke="white" stroke-width="0.3"/>
<path d="M30.6251 41.9469C29.7327 41.9477 28.8771 42.3025 28.2461 42.9336C27.615 43.5646 27.2602 44.4202 27.2594 45.3126C27.2594 45.3126 27.2594 45.3126 27.2594 45.3126L27.1094 45.3125L30.6251 41.9469ZM30.6251 41.9469L49.3749 41.9469M30.6251 41.9469L49.3749 41.9469M49.3749 41.9469C49.3749 41.9469 49.3749 41.9469 49.3749 41.9469L49.375 41.7969V41.9469H49.3749ZM50.3097 47.4191C50.5576 47.1712 50.6969 46.835 50.6969 46.4844V45.3125C50.6969 44.9619 50.5576 44.6257 50.3097 44.3778C50.0618 44.1299 49.7256 43.9906 49.375 43.9906H30.625C30.2744 43.9906 29.9382 44.1299 29.6903 44.3778C29.4424 44.6257 29.3031 44.9619 29.3031 45.3125V46.4844C29.3031 46.835 29.4424 47.1712 29.6903 47.4191C29.9382 47.667 30.2744 47.8063 30.625 47.8063H49.375C49.7256 47.8063 50.0618 47.667 50.3097 47.4191Z" fill="#0C397E" stroke="white" stroke-width="0.3"/>
</g>
<defs>
<clipPath id="clip0_2041_150">
<rect width="80" height="80" fill="white"/>
</clipPath>
</defs>
</svg>
