<svg width="80" height="80" viewBox="0 0 80 80" fill="none" xmlns="http://www.w3.org/2000/svg">
<g clip-path="url(#clip0_2041_139)">
<path d="M35.122 44.2067L35.4478 44.4866C36.728 45.5862 37.7553 46.9498 38.4589 48.4839C39.1626 50.0179 39.5261 51.686 39.5244 53.3737M35.122 44.2067L39.0244 53.3732M35.122 44.2067L34.7962 44.4866C33.5159 45.5862 32.4887 46.9498 31.785 48.4839C31.0813 50.0179 30.7179 51.686 30.7195 53.3737M35.122 44.2067L31.2195 53.3732M39.5244 53.3737L39.0244 53.3732M39.5244 53.3737V53.3732H39.0244M39.5244 53.3737V73.6463C39.5244 74.2964 39.2662 74.9199 38.8065 75.3796C38.3468 75.8393 37.7233 76.0976 37.0732 76.0976H33.1707C32.5206 76.0976 31.8972 75.8393 31.4375 75.3796C30.9778 74.9199 30.7195 74.2964 30.7195 73.6463V53.3737M39.0244 53.3732V73.6463C39.0244 74.1638 38.8188 74.6601 38.4529 75.0261C38.087 75.392 37.5907 75.5976 37.0732 75.5976H33.1707C32.6533 75.5976 32.157 75.392 31.791 75.0261C31.4251 74.6601 31.2195 74.1638 31.2195 73.6463V53.3732M30.7195 53.3737L31.2195 53.3732M30.7195 53.3737V53.3732H31.2195M69.7439 11.2073V11.7073H70.2439H72.1952C73.615 11.7073 74.9768 12.2714 75.9808 13.2754C76.9848 14.2794 77.5488 15.6411 77.5488 17.061V28.7683C77.5488 30.1882 76.9848 31.5499 75.9808 32.5539C74.9768 33.5579 73.615 34.122 72.1952 34.122H39.0244C38.3743 34.122 37.7508 34.3802 37.2911 34.8399C36.8314 35.2996 36.5732 35.9231 36.5732 36.5732V41.4707V41.7165L36.7677 41.8666C38.5277 43.2246 39.9529 44.9679 40.9339 46.9627C41.9149 48.9574 42.4257 51.1505 42.4268 53.3734V73.6463C42.4268 75.0662 41.8628 76.4279 40.8588 77.4319C39.8548 78.436 38.4931 79 37.0732 79H33.1707C31.7509 79 30.3891 78.436 29.3851 77.4319C28.3811 76.4279 27.8171 75.0662 27.8171 73.6463V53.3734C27.8183 51.1505 28.329 48.9574 29.31 46.9627C30.291 44.9679 31.7163 43.2246 33.4762 41.8666L33.6707 41.7165V41.4707V36.5732C33.6707 35.1533 34.2348 33.7916 35.2388 32.7876C36.2428 31.7836 37.6045 31.2195 39.0244 31.2195H72.1952C72.8453 31.2195 73.4687 30.9613 73.9284 30.5016C74.3881 30.0419 74.6464 29.4184 74.6464 28.7683V17.061C74.6464 16.4109 74.3881 15.7874 73.9284 15.3277C73.4687 14.868 72.8453 14.6098 72.1952 14.6098H70.2439H69.7439V15.1098V19.0122C69.7439 20.9496 68.9743 22.8076 67.6044 24.1775C66.2345 25.5475 64.3764 26.3171 62.4391 26.3171H7.80488C5.86751 26.3171 4.00948 25.5475 2.63955 24.1775C1.26962 22.8076 0.5 20.9496 0.5 19.0122V7.30488C0.5 5.3675 1.26962 3.50948 2.63955 2.13955C4.00948 0.769619 5.86751 0 7.80488 0H62.4391C64.3764 0 66.2345 0.769619 67.6044 2.13955C68.9743 3.50948 69.7439 5.36751 69.7439 7.30488V11.2073ZM65.5521 22.1252C66.3777 21.2996 66.8415 20.1798 66.8415 19.0122V7.30488C66.8415 6.13728 66.3777 5.0175 65.5521 4.19188C64.7264 3.36627 63.6067 2.90244 62.4391 2.90244H7.80488C6.63728 2.90244 5.5175 3.36627 4.69189 4.19188C3.86627 5.0175 3.40244 6.13728 3.40244 7.30488V19.0122C3.40244 20.1798 3.86627 21.2996 4.69189 22.1252C5.5175 22.9508 6.63728 23.4146 7.80488 23.4146H62.4391C63.6067 23.4146 64.7264 22.9508 65.5521 22.1252Z" fill="#0C397E" stroke="white"/>
</g>
<defs>
<clipPath id="clip0_2041_139">
<rect width="80" height="80" fill="white"/>
</clipPath>
</defs>
</svg>
