<svg width="30" height="30" viewBox="0 0 30 30" fill="none" xmlns="http://www.w3.org/2000/svg">
<g clip-path="url(#clip0_2041_711)">
<path fill-rule="evenodd" clip-rule="evenodd" d="M14.9531 0.455078C17.6574 0.485937 20.1005 1.15057 22.2823 2.44898C24.4381 3.72147 26.2314 5.52575 27.4908 7.68929C28.7813 9.88427 29.4419 12.3421 29.4726 15.0629C29.396 18.7855 28.2219 21.9651 25.9502 24.6014C23.6785 27.2378 20.769 28.8688 17.7572 29.4941V19.0569H20.6046L21.2486 14.9553H16.9369V12.2689C16.9129 11.712 17.089 11.1649 17.4334 10.7266C17.7782 10.287 18.3854 10.056 19.255 10.0335H21.8587V6.44059C21.8214 6.42857 21.4669 6.38104 20.7953 6.29799C20.0336 6.20887 19.2676 6.16127 18.5007 6.1554C16.7651 6.16341 15.3924 6.65301 14.3827 7.62419C13.373 8.59511 12.8572 9.99981 12.8353 11.8383V14.9553H9.55407V19.0569H12.8353V29.4941C9.13719 28.8688 6.22771 27.2378 3.95603 24.6014C1.68435 21.9651 0.510246 18.7855 0.433594 15.0629C0.464262 12.342 1.12488 9.88414 2.41545 7.68929C3.67479 5.52576 5.46812 3.72147 7.62394 2.44898C9.80572 1.15082 12.2488 0.486187 14.9531 0.455078Z" fill="#0C397E"/>
</g>
<defs>
<clipPath id="clip0_2041_711">
<rect width="30" height="30" fill="white"/>
</clipPath>
</defs>
</svg>
