<svg width="25" height="25" viewBox="0 0 25 25" fill="none" xmlns="http://www.w3.org/2000/svg">
<path d="M21.3375 3.65983C16.4552 -1.22098 8.54064 -1.21981 3.65983 3.66252C-1.22098 8.54484 -1.21981 16.4594 3.66252 21.3402C8.54484 26.221 16.4594 26.2198 21.3402 21.3375C23.6842 18.9927 25.0007 15.8128 25 12.4973C24.9993 9.18239 23.6819 6.00349 21.3375 3.65983ZM18.9308 17.4124C18.9303 17.4129 18.9298 17.4135 18.9292 17.414V17.4099L18.2958 18.039C17.4767 18.8685 16.2838 19.2097 15.15 18.939C14.0076 18.6333 12.9217 18.1466 11.9333 17.4974C11.0151 16.9105 10.1641 16.2245 9.39582 15.4515C8.68893 14.7498 8.05388 13.9793 7.49997 13.1515C6.89411 12.2608 6.41457 11.2905 6.07497 10.2682C5.68566 9.06721 6.00827 7.74938 6.90832 6.86403L7.64997 6.12238C7.85617 5.91525 8.19123 5.91452 8.39831 6.12072C8.39885 6.12126 8.39943 6.1218 8.39997 6.12238L10.7416 8.46403C10.9487 8.67023 10.9495 9.00529 10.7433 9.21237C10.7427 9.21291 10.7422 9.21345 10.7416 9.21403L9.36662 10.589C8.97209 10.9793 8.92248 11.5994 9.24997 12.0474C9.74728 12.7299 10.2976 13.3721 10.8958 13.9682C11.5628 14.6381 12.2878 15.2474 13.0625 15.7891C13.5101 16.1013 14.1169 16.0487 14.5041 15.6641L15.8333 14.3141C16.0395 14.107 16.3745 14.1062 16.5816 14.3124C16.5821 14.313 16.5827 14.3135 16.5833 14.3141L18.9291 16.6641C19.1363 16.8702 19.137 17.2052 18.9308 17.4124Z" fill="#002967"/>
</svg>
