<svg width="60" height="60" viewBox="0 0 60 60" fill="none" xmlns="http://www.w3.org/2000/svg">
<g clip-path="url(#clip0_2041_865)">
<mask id="mask0_2041_865" style="mask-type:luminance" maskUnits="userSpaceOnUse" x="0" y="0" width="60" height="60">
<path d="M60 0L0 0L0 60H60V0Z" fill="white"/>
</mask>
<g mask="url(#mask0_2041_865)">
<path d="M21.1857 38.2498C20.6232 37.4998 20.0607 36.1873 18.9357 34.4998C18.3732 33.5623 16.6857 31.6873 16.1232 30.9373C15.7482 30.1873 15.7482 29.8123 15.9357 29.0623C16.1232 27.9373 17.2482 26.9998 18.5607 26.9998C19.4982 26.9998 20.4357 27.7498 21.1857 28.3123C21.5607 28.6873 22.1232 29.4373 22.4982 29.8123C22.8732 30.1873 22.8732 30.3748 23.2482 30.7498C23.6232 31.3123 23.8107 31.6873 23.6232 30.9373C23.4357 29.9998 23.2482 28.4998 22.8732 26.9998C22.6857 25.8748 22.4982 25.6873 22.3107 24.9373C22.1232 23.9998 21.9357 23.4373 21.7482 22.4998C21.5607 21.9373 21.3732 20.4373 21.1857 19.6873C20.9982 18.7498 20.9982 17.0623 21.7482 16.3123C22.3107 15.7498 23.4357 15.5623 24.1857 15.9373C25.1232 16.4998 25.6857 17.8123 25.8732 18.3748C26.2482 19.3123 26.6232 20.6248 26.8107 22.1248C27.1857 23.9998 27.7482 26.8123 27.7482 27.3748C27.7482 26.6248 27.5607 25.3123 27.7482 24.5623C27.9357 23.9998 28.3107 23.2498 29.0607 23.0623C29.6232 22.8748 30.1857 22.8748 30.7482 22.8748C31.3107 23.0623 31.8732 23.4373 32.2482 23.8123C32.9982 24.9373 32.9982 27.3748 32.9982 27.1873C33.1857 26.4373 33.1857 24.9373 33.5607 24.1873C33.7482 23.8123 34.4982 23.4373 34.8732 23.2498C35.4357 23.0623 36.1857 23.0623 36.7482 23.2498C37.1232 23.2498 37.8732 23.8123 38.0607 24.1873C38.4357 24.7498 38.6232 26.6248 38.8107 27.3748C38.8107 27.5623 38.9982 26.6248 39.3732 26.0623C40.1232 24.9373 42.7482 24.5623 42.9357 27.1873C42.9357 28.4998 42.9357 28.3123 42.9357 29.2498C42.9357 30.1873 42.9357 30.7498 42.9357 31.4998C42.9357 32.2498 42.7482 33.9373 42.5607 34.6873C42.3732 35.2498 41.8107 36.5623 41.2482 37.3123C41.2482 37.3123 39.1857 39.5623 38.9982 40.6873C38.8107 41.8123 38.8107 41.8123 38.8107 42.5623C38.8107 43.3123 38.9982 44.2498 38.9982 44.2498C38.9982 44.2498 37.4982 44.4373 36.7482 44.2498C35.9982 44.0623 35.0607 42.7498 34.8732 42.1873C34.4982 41.6248 33.9357 41.6248 33.5607 42.1873C33.1857 42.9373 32.2482 44.2498 31.4982 44.2498C30.1857 44.4373 27.5607 44.2498 25.6857 44.2498C25.6857 44.2498 26.0607 42.3748 25.3107 41.6248C24.7482 41.0623 23.8107 40.1248 23.2482 39.5623L21.1857 38.2498Z" fill="white"/>
</g>
<mask id="mask1_2041_865" style="mask-type:luminance" maskUnits="userSpaceOnUse" x="0" y="0" width="60" height="60">
<path d="M60 0L0 0L0 60H60V0Z" fill="white"/>
</mask>
<g mask="url(#mask1_2041_865)">
<path d="M21.1857 38.2498C20.6232 37.4998 20.0607 36.1873 18.9357 34.4998C18.3732 33.5623 16.6857 31.6873 16.1232 30.9373C15.7482 30.1873 15.7482 29.8123 15.9357 29.0623C16.1232 27.9373 17.2482 26.9998 18.5607 26.9998C19.4982 26.9998 20.4357 27.7498 21.1857 28.3123C21.5607 28.6873 22.1232 29.4373 22.4982 29.8123C22.8732 30.1873 22.8732 30.3748 23.2482 30.7498C23.6232 31.3123 23.8107 31.6873 23.6232 30.9373C23.4357 29.9998 23.2482 28.4998 22.8732 26.9998C22.6857 25.8748 22.4982 25.6873 22.3107 24.9373C22.1232 23.9998 21.9357 23.4373 21.7482 22.4998C21.5607 21.9373 21.3732 20.4373 21.1857 19.6873C20.9982 18.7498 20.9982 17.0623 21.7482 16.3123C22.3107 15.7498 23.4357 15.5623 24.1857 15.9373C25.1232 16.4998 25.6857 17.8123 25.8732 18.3748C26.2482 19.3123 26.6232 20.6248 26.8107 22.1248C27.1857 23.9998 27.7482 26.8123 27.7482 27.3748C27.7482 26.6248 27.5607 25.3123 27.7482 24.5623C27.9357 23.9998 28.3107 23.2498 29.0607 23.0623C29.6232 22.8748 30.1857 22.8748 30.7482 22.8748C31.3107 23.0623 31.8732 23.4373 32.2482 23.8123C32.9982 24.9373 32.9982 27.3748 32.9982 27.1873C33.1857 26.4373 33.1857 24.9373 33.5607 24.1873C33.7482 23.8123 34.4982 23.4373 34.8732 23.2498C35.4357 23.0623 36.1857 23.0623 36.7482 23.2498C37.1232 23.2498 37.8732 23.8123 38.0607 24.1873C38.4357 24.7498 38.6232 26.6248 38.8107 27.3748C38.8107 27.5623 38.9982 26.6248 39.3732 26.0623C40.1232 24.9373 42.7482 24.5623 42.9357 27.1873C42.9357 28.4998 42.9357 28.3123 42.9357 29.2498C42.9357 30.1873 42.9357 30.7498 42.9357 31.4998C42.9357 32.2498 42.7482 33.9373 42.5607 34.6873C42.3732 35.2498 41.8107 36.5623 41.2482 37.3123C41.2482 37.3123 39.1857 39.5623 38.9982 40.6873C38.8107 41.8123 38.8107 41.8123 38.8107 42.5623C38.8107 43.3123 38.9982 44.2498 38.9982 44.2498C38.9982 44.2498 37.4982 44.4373 36.7482 44.2498C35.9982 44.0623 35.0607 42.7498 34.8732 42.1873C34.4982 41.6248 33.9357 41.6248 33.5607 42.1873C33.1857 42.9373 32.2482 44.2498 31.4982 44.2498C30.1857 44.4373 27.5607 44.2498 25.6857 44.2498C25.6857 44.2498 26.0607 42.3748 25.3107 41.6248C24.7482 41.0623 23.8107 40.1248 23.2482 39.5623L21.1857 38.2498Z" stroke="black" stroke-linecap="round" stroke-linejoin="round"/>
</g>
<mask id="mask2_2041_865" style="mask-type:luminance" maskUnits="userSpaceOnUse" x="0" y="0" width="60" height="60">
<path d="M60 0L0 0L0 60H60V0Z" fill="white"/>
</mask>
<g mask="url(#mask2_2041_865)">
<path d="M36.75 38.8125V32.4375" stroke="black" stroke-linecap="round"/>
</g>
<mask id="mask3_2041_865" style="mask-type:luminance" maskUnits="userSpaceOnUse" x="0" y="0" width="60" height="60">
<path d="M60 0L0 0L0 60H60V0Z" fill="white"/>
</mask>
<g mask="url(#mask3_2041_865)">
<path d="M33 38.8125L32.8125 32.4375" stroke="black" stroke-linecap="round"/>
</g>
<mask id="mask4_2041_865" style="mask-type:luminance" maskUnits="userSpaceOnUse" x="0" y="0" width="60" height="60">
<path d="M60 0L0 0L0 60H60V0Z" fill="white"/>
</mask>
<g mask="url(#mask4_2041_865)">
<path d="M29.25 32.4375V38.8125" stroke="black" stroke-linecap="round"/>
</g>
</g>
<defs>
<clipPath id="clip0_2041_865">
<rect width="60" height="60" fill="white"/>
</clipPath>
</defs>
</svg>
