<svg width="60" height="60" viewBox="0 0 60 60" fill="none" xmlns="http://www.w3.org/2000/svg">
<path d="M27.5 33.8648L27.5977 33.9487C28.3993 34.6372 29.0424 35.4909 29.4829 36.4513C29.9235 37.4117 30.151 38.456 30.15 39.5126M27.5 33.8648L30 39.5125M27.5 33.8648L27.4023 33.9487C26.6007 34.6372 25.9576 35.4909 25.5171 36.4513C25.0765 37.4117 24.849 38.456 24.85 39.5126M27.5 33.8648L25 39.5125M30.15 39.5126L30 39.5125M30.15 39.5126V39.5125H30M30.15 39.5126V52.5C30.15 52.8713 30.0025 53.2274 29.74 53.49C29.4774 53.7525 29.1213 53.9 28.75 53.9H26.25C25.8787 53.9 25.5226 53.7525 25.2601 53.49C24.9975 53.2274 24.85 52.8713 24.85 52.5V39.5126M30 39.5125V52.5C30 52.8315 29.8683 53.1495 29.6339 53.3839C29.3995 53.6183 29.0815 53.75 28.75 53.75H26.25C25.9185 53.75 25.6005 53.6183 25.3661 53.3839C25.1317 53.1495 25 52.8315 25 52.5V39.5125M24.85 39.5126L25 39.5125M24.85 39.5126V39.5125H25M49.85 12.5V12.65H50H51.25C52.2048 12.65 53.1205 13.0293 53.7956 13.7044C54.4707 14.3795 54.85 15.2952 54.85 16.25V23.75C54.85 24.7048 54.4707 25.6205 53.7956 26.2956C53.1205 26.9707 52.2048 27.35 51.25 27.35H30C29.6287 27.35 29.2726 27.4975 29.0101 27.76C28.7475 28.0226 28.6 28.3787 28.6 28.75V31.8875V31.9612L28.6584 32.0063C29.8064 32.8921 30.7362 34.0294 31.3761 35.3306C32.0161 36.6319 32.3492 38.0625 32.35 39.5126V52.5C32.35 53.4548 31.9707 54.3705 31.2956 55.0456C30.6205 55.7207 29.7048 56.1 28.75 56.1H26.25C25.2952 56.1 24.3795 55.7207 23.7044 55.0456C23.0293 54.3705 22.65 53.4548 22.65 52.5V39.5126C22.6508 38.0625 22.9839 36.6319 23.6239 35.3306C24.2639 34.0294 25.1936 32.8921 26.3416 32.0063L26.4 31.9612V31.8875V28.75C26.4 27.7952 26.7793 26.8795 27.4544 26.2044C28.1295 25.5293 29.0452 25.15 30 25.15H51.25C51.6213 25.15 51.9774 25.0025 52.24 24.74C52.5025 24.4774 52.65 24.1213 52.65 23.75V16.25C52.65 15.8787 52.5025 15.5226 52.24 15.2601C51.9774 14.9975 51.6213 14.85 51.25 14.85H50H49.85V15V17.5C49.85 18.7863 49.339 20.0199 48.4295 20.9295C47.5199 21.839 46.2863 22.35 45 22.35H10C8.7137 22.35 7.48008 21.839 6.57053 20.9295C5.66098 20.0199 5.15 18.7863 5.15 17.5V10C5.15 8.7137 5.66098 7.48008 6.57053 6.57053C7.48008 5.66098 8.7137 5.15 10 5.15H45C46.2863 5.15 47.5199 5.66098 48.4295 6.57053C49.339 7.48008 49.85 8.7137 49.85 10V12.5ZM46.8738 19.3738C47.3708 18.8769 47.65 18.2028 47.65 17.5V10C47.65 9.29718 47.3708 8.62314 46.8738 8.12617C46.3769 7.6292 45.7028 7.35 45 7.35H10C9.29718 7.35 8.62314 7.6292 8.12617 8.12617C7.6292 8.62314 7.35 9.29718 7.35 10V17.5C7.35 18.2028 7.6292 18.8769 8.12617 19.3738C8.62314 19.8708 9.29718 20.15 10 20.15H45C45.7028 20.15 46.3769 19.8708 46.8738 19.3738Z" fill="#002967" stroke="white" stroke-width="0.3"/>
</svg>
