<svg width="18" height="12" viewBox="0 0 18 12" fill="none" xmlns="http://www.w3.org/2000/svg">
<path d="M0.771429 4.90932C0.34538 4.90932 0 5.2547 0 5.68075C0 6.1068 0.34538 6.45218 0.771429 6.45218V4.90932ZM17.7741 6.22623C18.0753 5.92497 18.0753 5.43653 17.7741 5.13527L12.8647 0.225924C12.5635 -0.0753378 12.075 -0.0753378 11.7737 0.225924C11.4725 0.527186 11.4725 1.01563 11.7737 1.31689L16.1376 5.68075L11.7737 10.0446C11.4725 10.3459 11.4725 10.8343 11.7737 11.1356C12.075 11.4368 12.5635 11.4368 12.8647 11.1356L17.7741 6.22623ZM0.771429 6.45218H17.2286V4.90932H0.771429V6.45218Z" fill="white"/>
</svg>
