<svg width="16" height="10" viewBox="0 0 16 10" fill="none" xmlns="http://www.w3.org/2000/svg">
<path d="M15.3543 5.40047L16 5.40047L16 4.10909L15.3543 4.10909L15.3543 5.40047ZM0.189138 4.2982C-0.0630202 4.55036 -0.0630202 4.95919 0.189137 5.21135L4.29828 9.32049C4.55044 9.57265 4.95927 9.57265 5.21143 9.32049C5.46359 9.06834 5.46359 8.65951 5.21143 8.40735L1.55885 4.75478L5.21143 1.1022C5.46359 0.850043 5.46359 0.441214 5.21143 0.189057C4.95927 -0.0631009 4.55044 -0.063101 4.29829 0.189057L0.189138 4.2982ZM15.3543 4.10909L0.64571 4.10909L0.64571 5.40047L15.3543 5.40047L15.3543 4.10909Z" fill="#0C397E"/>
</svg>
