<svg width="12" height="12" viewBox="0 0 12 12" fill="none" xmlns="http://www.w3.org/2000/svg">
<path d="M5.99999 12C9.31369 12 12 9.31369 12 5.99999C12 2.68629 9.31369 0 5.99999 0C2.68629 0 0 2.68629 0 5.99999C0 9.31369 2.68629 12 5.99999 12Z" fill="#2693D1"/>
<path d="M5.14808 8.14796C5.02808 8.14796 4.91408 8.09996 4.83008 8.01596L3.13208 6.31796C2.95809 6.14396 2.95809 5.85596 3.13208 5.68196C3.30608 5.50797 3.59408 5.50797 3.76808 5.68196L5.14808 7.06196L8.23208 3.97797C8.40608 3.80397 8.69408 3.80397 8.86808 3.97797C9.04208 4.15197 9.04208 4.43997 8.86808 4.61397L5.46608 8.01596C5.38208 8.09996 5.26808 8.14796 5.14808 8.14796Z" fill="white"/>
</svg>
