<svg width="18" height="12" viewBox="0 0 18 12" fill="none" xmlns="http://www.w3.org/2000/svg">
<path d="M0.771429 4.90934C0.34538 4.90934 0 5.25472 0 5.68077C0 6.10682 0.34538 6.4522 0.771429 6.4522V4.90934ZM17.7741 6.22625C18.0753 5.92499 18.0753 5.43655 17.7741 5.13529L12.8647 0.225948C12.5635 -0.0753142 12.075 -0.0753142 11.7737 0.225948C11.4725 0.527209 11.4725 1.01565 11.7737 1.31691L16.1376 5.68077L11.7737 10.0446C11.4725 10.3459 11.4725 10.8343 11.7737 11.1356C12.075 11.4369 12.5635 11.4369 12.8647 11.1356L17.7741 6.22625ZM0.771429 6.4522H17.2286V4.90934H0.771429V6.4522Z" fill="#F07423"/>
</svg>
