<svg width="25" height="25" viewBox="0 0 25 25" fill="none" xmlns="http://www.w3.org/2000/svg">
<g clip-path="url(#clip0_2041_193)">
<path d="M21.3375 3.72624C16.4552 -1.15457 8.54064 -1.1534 3.65983 3.72892C-1.22098 8.61125 -1.21981 16.5258 3.66252 21.4066C8.54484 26.2874 16.4594 26.2862 21.3402 21.4039C23.6842 19.0591 25.0007 15.8792 25 12.5637C24.9993 9.2488 23.6819 6.06989 21.3375 3.72624ZM18.9308 17.4788C18.9303 17.4793 18.9298 17.4799 18.9292 17.4804V17.4763L18.2958 18.1054C17.4767 18.9349 16.2838 19.2761 15.15 19.0054C14.0076 18.6997 12.9217 18.213 11.9333 17.5638C11.0151 16.9769 10.1641 16.2909 9.39582 15.5179C8.68893 14.8162 8.05388 14.0457 7.49997 13.2179C6.89411 12.3272 6.41457 11.3569 6.07497 10.3346C5.68566 9.13361 6.00827 7.81579 6.90832 6.93044L7.64997 6.18879C7.85617 5.98166 8.19123 5.98093 8.39831 6.18713C8.39885 6.18766 8.39943 6.1882 8.39997 6.18879L10.7416 8.53044C10.9487 8.73664 10.9495 9.0717 10.7433 9.27878C10.7427 9.27932 10.7422 9.27985 10.7416 9.28044L9.36662 10.6554C8.97209 11.0457 8.92248 11.6658 9.24997 12.1138C9.74728 12.7963 10.2976 13.4385 10.8958 14.0346C11.5628 14.7045 12.2878 15.3138 13.0625 15.8555C13.5101 16.1677 14.1169 16.1151 14.5041 15.7305L15.8333 14.3805C16.0395 14.1734 16.3745 14.1726 16.5816 14.3788C16.5821 14.3794 16.5827 14.3799 16.5833 14.3805L18.9291 16.7305C19.1363 16.9366 19.137 17.2716 18.9308 17.4788Z" fill="#002967"/>
</g>
<defs>
<clipPath id="clip0_2041_193">
<rect width="25" height="25" fill="white"/>
</clipPath>
</defs>
</svg>
