<svg width="100" height="100" viewBox="0 0 100 100" fill="none" xmlns="http://www.w3.org/2000/svg">
<g clip-path="url(#clip0_2041_225)">
<path d="M67.8865 38.7486L67.8865 38.7486C66.726 39.065 65.3731 38.8486 64.3453 38.1855C63.5807 37.6923 63.0701 37.0058 62.9475 36.2385L67.8865 38.7486ZM67.8865 38.7486C69.6105 38.2783 70.7263 37.1853 71.7586 36.1741L71.7728 36.1602C72.4938 35.4541 73.1415 34.8226 73.9255 34.4306C77.3546 32.7164 81.6247 34.1865 83.8447 37.9239C84.7708 39.4833 85.2974 41.4995 84.9286 43.5859C84.5608 45.6665 83.298 47.8434 80.5974 49.7242C78.1865 51.4032 76.797 53.5639 76.6292 55.98C76.4289 58.864 78.0074 61.9005 81.1001 64.764C84.2415 67.6727 87.6172 72.1344 86.355 77.1273C85.4761 80.6033 82.3861 83.4427 78.2538 84.5051C73.9448 85.6128 69.5847 84.4701 66.8619 81.553C66.6639 81.3408 66.4473 81.1033 66.2121 80.8453L66.0273 81.0136L66.2121 80.8452L66.2075 80.8402C65.0777 79.6007 63.4445 77.809 61.5324 76.4024C59.6216 74.9968 57.3907 73.9445 55.073 74.2547C51.6984 74.7064 48.5262 77.9224 45.608 83.626C43.4015 87.9387 38.0109 90.7727 32.2598 90.7727C31.5479 90.7727 30.8311 90.7291 30.115 90.6398C23.7409 89.8438 19.2459 85.6966 17.7701 79.2332C16.2168 72.4291 19.4576 67.9315 21.8734 64.5867C22.8311 63.2607 23.5727 62.2056 23.9724 61.2847C24.3794 60.3472 24.4458 59.5167 24.0196 58.6632C23.4685 57.5596 22.4653 56.673 21.2833 55.9061C20.1027 55.1402 18.7163 54.4769 17.3708 53.8332L17.3618 53.8288L17.2539 54.0544L17.3618 53.8288C15.2626 52.8245 13.0702 51.7732 11.4821 50.2828C9.90971 48.8071 8.9354 46.9062 9.26824 44.1766C9.70969 40.5578 11.5537 38.0881 14.2783 37.3187C16.2873 36.7514 18.5711 37.1192 20.9331 38.3546C23.2952 39.5901 25.7208 41.6867 27.9944 44.546C28.8715 45.6492 30.0256 46.6258 31.31 47.0651C32.6085 47.5093 34.0287 47.3983 35.3857 46.3419C37.1104 44.9995 38.0594 42.3902 36.5147 40.3629L36.5147 40.3629C36.245 40.009 35.8967 39.6189 35.5373 39.2163L35.534 39.2126C35.534 39.2126 35.534 39.2126 35.534 39.2126C33.8634 37.3409 31.4712 34.6407 32.8116 30.8103C33.5535 28.691 34.9082 27.196 36.7206 26.4611C38.8926 25.5805 41.5547 25.8461 44.4371 27.2874C46.5168 28.3272 48.3186 28.5148 49.7432 27.7353L49.6232 27.516L49.7432 27.7353C50.8418 27.134 51.7424 25.9505 52.4334 24.3143C53.1259 22.6744 53.6192 20.5538 53.8862 18.0366L53.6376 18.0103L53.8862 18.0366C54.3212 13.9357 57.1878 11.2429 61.201 11.1451L61.2011 11.1451M67.8865 38.7486L61.2011 11.1451M61.2011 11.1451C65.2251 11.0459 69.9438 13.8353 70.7764 19.1849C71.0278 20.7994 70.6005 22.3088 69.8206 23.7727C69.0383 25.2412 67.9127 26.6436 66.7869 28.0449L66.7781 28.0559M61.2011 11.1451L66.7781 28.0559M61.2604 13.5742C59.8771 13.6079 58.7089 14.0631 57.8478 14.884C56.9876 15.7041 56.4534 16.8707 56.3025 18.2933C55.6509 24.4359 53.8062 28.2819 50.91 29.867C48.7898 31.0274 46.2589 30.9152 43.3508 29.4609C41.2026 28.3866 39.1647 28.0922 37.6338 28.7132C36.4514 29.1928 35.6056 30.1835 35.1051 31.6135C34.6993 32.7728 34.7976 33.7627 35.2394 34.7228C35.6734 35.6659 36.4385 36.5776 37.3468 37.5952L37.5333 37.4287L37.3468 37.5952C37.7495 38.0463 38.122 38.4638 38.4475 38.891L38.4475 38.891C39.5675 40.3608 39.9687 42.176 39.5763 44.0088C39.2255 45.6462 38.2424 47.1977 36.8782 48.2596C35.4884 49.3414 33.6962 49.9214 31.807 49.6725C29.9203 49.4238 27.9104 48.3444 26.0928 46.0587C24.4633 44.0095 22.7195 42.3721 21.0205 41.2451C19.3249 40.1204 17.6557 39.4922 16.1803 39.4922C15.7488 39.4922 15.3331 39.5458 14.9386 39.6573C13.7193 40.0015 12.9467 40.8511 12.4612 41.7824C11.9776 42.7102 11.7698 43.7343 11.6799 44.4711C11.5726 45.3515 11.6634 46.1188 11.9396 46.8069C12.2153 47.4939 12.6698 48.0868 13.2679 48.628C14.4547 49.7019 16.241 50.5996 18.4103 51.6373C21.5803 53.1537 24.7455 54.679 26.1932 57.578C26.9534 59.1004 26.8569 60.5227 26.3276 61.9077C25.793 63.3066 24.8227 64.6526 23.8429 66.0094L23.8318 66.0247C21.5162 69.231 18.8282 72.9529 20.1387 78.6927C21.3687 84.0805 25.1181 87.5678 30.4157 88.2291C35.8057 88.9024 41.4176 86.4817 43.4447 82.5197C46.8119 75.9381 50.6264 72.3988 54.7503 71.8468C57.6478 71.4589 60.2973 72.5636 62.5654 74.1452C64.834 75.7272 66.6934 77.767 68.0074 79.2088C68.2337 79.4572 68.4446 79.6884 68.6379 79.8955C71.1861 82.626 74.975 82.8396 77.6484 82.1523C80.8749 81.323 83.3282 79.1857 83.9993 76.532C84.7834 73.4306 83.1501 69.9734 79.4496 66.547C74.7785 62.2216 74.0325 58.3071 74.2057 55.8119C74.421 52.7085 76.1857 49.8358 79.2091 47.7304C81.1715 46.3637 82.1653 44.8112 82.4847 43.2919C82.8034 41.7756 82.4439 40.3228 81.756 39.1649C80.0084 36.2219 76.9923 35.6139 75.0126 36.6037C74.7757 36.7222 74.5234 36.918 74.2708 37.1403C74.0162 37.3642 73.7461 37.6288 73.4748 37.8945L73.4735 37.8958C72.2883 39.0568 70.8539 40.4578 68.5264 41.0926C66.6992 41.5909 64.6422 41.2678 63.0289 40.2272C61.6521 39.3389 60.7783 38.0568 60.5488 36.6224C60.2382 34.6806 60.7265 32.897 61.5949 31.2241C62.4657 29.5465 63.7091 27.9973 64.8933 26.5233L64.9015 26.5131C65.8613 25.3184 66.8101 24.1374 67.4764 22.991C68.1437 21.8429 68.5521 20.6899 68.3759 19.5585C67.7553 15.5714 64.2501 13.499 61.2604 13.5742ZM61.2604 13.5742C61.2603 13.5742 61.2603 13.5742 61.2603 13.5742L61.2666 13.8241L61.2605 13.5742C61.2605 13.5742 61.2604 13.5742 61.2604 13.5742ZM66.7781 28.0559C65.6981 29.4003 64.6306 30.7291 63.8902 32.0669M66.7781 28.0559L63.8902 32.0669M63.8902 32.0669C63.146 33.4115 62.7161 34.7929 62.9475 36.2385L63.8902 32.0669Z" fill="#0C397E" stroke="#F0FAFF" stroke-width="0.5"/>
<path d="M17.2603 17.8787L17.4683 18.0173C16.9421 18.8066 16.1244 19.2067 15.0241 19.2673M17.2603 17.8787L7.56367 2.68332C5.62387 2.75395 3.98529 3.87795 3.18496 5.6791L3.18496 5.6791C2.10998 8.09859 2.79498 11.0639 4.92739 13.6048C6.36866 15.3222 8.1426 16.775 9.92515 17.7796C11.7028 18.7814 13.5133 19.351 15.0241 19.2673M17.2603 17.8787L17.4683 18.0173C17.7892 17.5359 17.9445 16.8896 17.9831 16.1677C18.0219 15.4422 17.944 14.6179 17.778 13.7607C17.4461 12.0467 16.7563 10.1717 15.9008 8.64051L15.9008 8.64048C15.3994 7.74332 14.4556 6.26024 13.104 4.99859C11.7523 3.73696 9.97276 2.67885 7.80659 2.67885L17.2603 17.8787ZM15.0241 19.2673L15.0103 19.0177L15.0241 19.2673C15.0241 19.2673 15.0241 19.2673 15.0241 19.2673ZM18.0216 7.45588L18.2398 7.33393L18.0216 7.45589C19.1641 9.50042 19.9619 11.7822 20.27 13.8766C20.5123 15.5243 20.5536 17.7695 19.4898 19.3652L19.6978 19.5039L19.4898 19.3652C18.5472 20.7791 17.0586 21.5885 15.1581 21.6933L15.158 21.6933C15.0186 21.701 14.8776 21.7048 14.7351 21.7048C11.0471 21.7048 6.40617 19.1462 3.06645 15.1668L2.87495 15.3275L3.06644 15.1668C0.284204 11.8516 -0.477508 7.93833 0.964545 4.69267C2.13549 2.05742 4.62984 0.359201 7.47531 0.255646C11.5104 0.112638 15.3631 2.6985 18.0216 7.45588Z" fill="#0C397E" stroke="#F0FAFF" stroke-width="0.5"/>
<path d="M31.5731 8.98172L31.5731 8.98169C31.5054 6.86293 32.6803 4.95647 34.7464 3.88649C36.0351 3.21924 37.3971 3.20961 38.7018 3.85898C40.0386 4.5246 41.1294 5.79294 41.9193 7.08532C42.7097 8.37827 43.1763 9.6577 43.2869 10.3058C43.6015 12.1483 43.0509 13.7834 41.8637 14.7106C41.305 15.1468 40.4687 15.5459 39.2679 15.5459C38.3906 15.5459 37.3095 15.3329 35.9906 14.7534L35.9906 14.7534C33.2784 13.5618 31.65 11.3957 31.5731 8.98172ZM36.968 12.5291L37.0685 12.3002L36.968 12.5291C37.6909 12.8468 38.3649 13.0396 38.9394 13.0941C39.5065 13.1479 40.0168 13.0702 40.3683 12.7957C40.6295 12.5918 40.795 12.2781 40.8781 11.9229C40.9616 11.5659 40.9664 11.1503 40.8921 10.7143L40.8921 10.7142C40.8162 10.2694 40.431 9.32114 39.8661 8.38982C39.3017 7.45922 38.5207 6.4826 37.6191 6.0337C37.3252 5.88721 37.0353 5.80847 36.7382 5.81007C36.441 5.81166 36.1533 5.89359 35.8637 6.04369C34.6641 6.66498 33.9632 7.70343 34.0015 8.90408L34.0015 8.90411C34.0496 10.4111 35.1973 11.751 36.968 12.5291Z" fill="#0C397E" stroke="#F0FAFF" stroke-width="0.5"/>
<path d="M88.8635 12.5597L88.8635 12.5597C89.8758 13.1051 90.5179 14.023 90.7193 15.2334C91.0139 17.0045 90.2914 19.417 88.731 21.6795L88.7309 21.6796C87.1273 24.0055 85.144 25.4908 83.3126 25.8121C83.0662 25.8553 82.8265 25.8765 82.5948 25.8765C81.5736 25.8765 80.6881 25.467 80.0417 24.6859C79.2982 23.7874 78.971 22.5248 78.9538 21.1559C78.9367 19.79 79.2292 18.346 79.6944 17.1164C80.7707 14.2713 82.679 12.4844 84.8938 12.136L84.8938 12.136C86.5526 11.8747 87.8802 12.0298 88.8635 12.5597ZM81.913 23.137L81.9136 23.1377L81.9165 23.1412C81.9647 23.1991 82.0561 23.309 82.2238 23.3792C82.3925 23.45 82.608 23.4693 82.8928 23.4192C83.5566 23.3028 84.2499 22.9041 84.9008 22.3592C85.5554 21.8112 86.186 21.0994 86.7245 20.3266C87.263 19.5539 87.7142 18.7132 88.0054 17.9042C88.295 17.0996 88.4342 16.3043 88.3224 15.632L88.3221 15.63C88.2907 15.4408 88.2212 15.0219 87.7599 14.7333C87.3168 14.4562 86.5649 14.3327 85.2716 14.536L85.2715 14.536C83.8951 14.7526 82.6823 16.0848 81.9666 17.9763C81.5529 19.0697 81.378 20.1523 81.3825 21.0575C81.3847 21.5102 81.4318 21.9229 81.519 22.2731C81.6053 22.6201 81.7348 22.9215 81.913 23.137Z" fill="#0C397E" stroke="#F0FAFF" stroke-width="0.5"/>
<path d="M91.3857 99.2713L91.3857 99.2713C92.2025 99.5952 93.0061 99.7504 93.7752 99.7504C96.0479 99.7504 98.0733 98.3895 99.2529 95.8581C100.099 94.0424 99.855 92.0348 98.5633 90.3361C96.8351 88.0636 93.6095 86.7433 90.9199 87.1929L91.3857 99.2713ZM91.3857 99.2713C89.7959 98.641 88.3387 97.396 87.4266 95.8697C86.5156 94.3453 86.1578 92.5584 86.728 90.8311M91.3857 99.2713L86.728 90.8311M86.728 90.8311C87.392 88.8199 88.8764 87.5346 90.9199 87.1929L86.728 90.8311ZM95.4909 96.7933C94.6984 97.3316 93.6385 97.5513 92.2813 97.0131C92.2813 97.0131 92.2813 97.0131 92.2813 97.0131L95.4909 96.7933ZM95.4909 96.7933C96.2671 96.2661 96.7622 95.4509 97.0506 94.832M95.4909 96.7933L97.0506 94.832M97.0506 94.832C97.5267 93.8101 97.3699 92.781 96.6295 91.8073C95.5942 90.4459 93.6827 89.5344 92.0102 89.5344C91.776 89.5344 91.5449 89.5521 91.3205 89.5898L97.0506 94.832ZM89.0353 91.5931L89.0353 91.5931L91.3204 89.5898C90.7541 89.6844 90.2741 89.8955 89.887 90.2355C89.5005 90.5751 89.2209 91.0309 89.0353 91.5931Z" fill="#0C397E" stroke="#F0FAFF" stroke-width="0.5"/>
</g>
<defs>
<clipPath id="clip0_2041_225">
<rect width="100" height="100" fill="white"/>
</clipPath>
</defs>
</svg>
