<svg width="30" height="30" viewBox="0 0 30 30" fill="none" xmlns="http://www.w3.org/2000/svg">
<g clip-path="url(#clip0_2041_713)">
<path d="M17.8711 15C17.8711 16.5857 16.5857 17.8711 15 17.8711C13.4143 17.8711 12.1289 16.5857 12.1289 15C12.1289 13.4143 13.4143 12.1289 15 12.1289C16.5857 12.1289 17.8711 13.4143 17.8711 15Z" fill="#0C397E"/>
<path d="M21.7134 9.92088C21.5754 9.54689 21.3552 9.20837 21.0691 8.93051C20.7913 8.64441 20.453 8.42422 20.0788 8.28621C19.7753 8.16833 19.3193 8.02803 18.4796 7.98981C17.5711 7.94838 17.2988 7.93945 14.999 7.93945C12.6989 7.93945 12.4266 7.94815 11.5184 7.98958C10.6786 8.02803 10.2224 8.16833 9.91916 8.28621C9.54494 8.42422 9.20642 8.64441 8.92879 8.93051C8.64268 9.20837 8.4225 9.54666 8.28426 9.92088C8.16638 10.2244 8.02608 10.6805 7.98785 11.5203C7.94643 12.4285 7.9375 12.7009 7.9375 15.0009C7.9375 17.3007 7.94643 17.5731 7.98785 18.4815C8.02608 19.3213 8.16638 19.7772 8.28426 20.0807C8.4225 20.4549 8.64246 20.7932 8.92856 21.0711C9.20642 21.3572 9.54471 21.5774 9.91893 21.7154C10.2224 21.8335 10.6786 21.9738 11.5184 22.012C12.4266 22.0535 12.6987 22.0621 14.9987 22.0621C17.299 22.0621 17.5714 22.0535 18.4793 22.012C19.3191 21.9738 19.7753 21.8335 20.0788 21.7154C20.83 21.4256 21.4237 20.8319 21.7134 20.0807C21.8313 19.7772 21.9716 19.3213 22.0101 18.4815C22.0515 17.5731 22.0602 17.3007 22.0602 15.0009C22.0602 12.7009 22.0515 12.4285 22.0101 11.5203C21.9718 10.6805 21.8315 10.2244 21.7134 9.92088ZM14.999 19.4236C12.5561 19.4236 10.5758 17.4435 10.5758 15.0007C10.5758 12.5578 12.5561 10.5778 14.999 10.5778C17.4416 10.5778 19.4219 12.5578 19.4219 15.0007C19.4219 17.4435 17.4416 19.4236 14.999 19.4236ZM19.5967 11.4365C19.0259 11.4365 18.5631 10.9737 18.5631 10.4029C18.5631 9.83208 19.0259 9.36928 19.5967 9.36928C20.1676 9.36928 20.6304 9.83208 20.6304 10.4029C20.6301 10.9737 20.1676 11.4365 19.5967 11.4365Z" fill="#0C397E"/>
<path d="M15 0C6.717 0 0 6.717 0 15C0 23.283 6.717 30 15 30C23.283 30 30 23.283 30 15C30 6.717 23.283 0 15 0ZM23.5613 18.5511C23.5197 19.468 23.3739 20.094 23.161 20.6419C22.7135 21.7989 21.7989 22.7135 20.6419 23.161C20.0942 23.3739 19.468 23.5194 18.5513 23.5613C17.6328 23.6032 17.3394 23.6133 15.0002 23.6133C12.6608 23.6133 12.3676 23.6032 11.4489 23.5613C10.5322 23.5194 9.90601 23.3739 9.35829 23.161C8.78334 22.9447 8.26286 22.6057 7.83257 22.1674C7.39449 21.7374 7.05551 21.2167 6.83922 20.6419C6.62636 20.0942 6.48056 19.468 6.4389 18.5513C6.39656 17.6326 6.38672 17.3392 6.38672 15C6.38672 12.6608 6.39656 12.3674 6.43867 11.4489C6.48033 10.532 6.6259 9.90601 6.83876 9.35806C7.05505 8.78334 7.39426 8.26263 7.83257 7.83257C8.26263 7.39426 8.78334 7.05528 9.35806 6.83899C9.90601 6.62613 10.532 6.48056 11.4489 6.43867C12.3674 6.39679 12.6608 6.38672 15 6.38672C17.3392 6.38672 17.6326 6.39679 18.5511 6.4389C19.468 6.48056 20.094 6.62613 20.6419 6.83876C21.2167 7.05505 21.7374 7.39426 22.1677 7.83257C22.6057 8.26286 22.9449 8.78334 23.161 9.35806C23.3741 9.90601 23.5197 10.532 23.5616 11.4489C23.6034 12.3674 23.6133 12.6608 23.6133 15C23.6133 17.3392 23.6034 17.6326 23.5613 18.5511Z" fill="#0C397E"/>
</g>
<defs>
<clipPath id="clip0_2041_713">
<rect width="30" height="30" fill="white"/>
</clipPath>
</defs>
</svg>
